<?xml version="1.0" encoding="UTF-8"?>
<svg xmlns="http://www.w3.org/2000/svg" xmlns:xlink="http://www.w3.org/1999/xlink" width="px" height="px" viewBox="0 0 2394 2394" version="1.1">
<defs>
<linearGradient id="linear0" gradientUnits="userSpaceOnUse" x1="0" y1="0" x2="1" y2="0" gradientTransform="matrix(2250,0,0,2250,72,72)">
<stop offset="0" style="stop-color:rgb(38.039216%,38.039216%,38.039216%);stop-opacity:1;"/>
<stop offset="0.5" style="stop-color:rgb(90.196078%,90.588235%,90.980392%);stop-opacity:1;"/>
<stop offset="1" style="stop-color:rgb(38.039216%,38.039216%,38.039216%);stop-opacity:1;"/>
</linearGradient>
<linearGradient id="linear1" gradientUnits="userSpaceOnUse" x1="0" y1="0" x2="1" y2="0" gradientTransform="matrix(480,0,0,456.492188,957.601562,705.597656)">
<stop offset="0" style="stop-color:rgb(17.647059%,21.960784%,54.117647%);stop-opacity:1;"/>
<stop offset="1" style="stop-color:rgb(0%,68.235294%,93.72549%);stop-opacity:1;"/>
</linearGradient>
<linearGradient id="linear2" gradientUnits="userSpaceOnUse" x1="0" y1="0" x2="1" y2="0" gradientTransform="matrix(1439.996094,0,0,176.097656,475.195312,1303.199219)">
<stop offset="0" style="stop-color:rgb(17.647059%,21.960784%,54.117647%);stop-opacity:1;"/>
<stop offset="1" style="stop-color:rgb(0%,68.235294%,93.72549%);stop-opacity:1;"/>
</linearGradient>
</defs>
<g id="surface1">
<path style=" stroke:none;fill-rule:nonzero;fill:url(#linear0);" d="M 72 72 L 72 2322 L 2322 2322 L 2322 72 Z M 2270.125 2270.125 L 123.875 2270.125 L 123.875 123.875 L 2270.125 123.875 Z M 2270.125 2270.125 "/>
<path style=" stroke:none;fill-rule:nonzero;fill:url(#linear1);" d="M 1197.601562 705.597656 L 1271.785156 855.867188 L 1437.601562 879.960938 L 1317.609375 996.925781 L 1345.945312 1162.089844 L 1197.601562 1084.113281 L 1049.289062 1162.089844 L 1077.613281 996.925781 L 957.601562 879.960938 L 1123.445312 855.867188 Z M 1197.601562 705.597656 "/>
<path style=" stroke:none;fill-rule:nonzero;fill:url(#linear2);" d="M 510.773438 1445.496094 L 564.488281 1445.496094 L 564.488281 1476.921875 L 475.195312 1476.921875 L 475.195312 1305.570312 L 510.773438 1305.570312 Z M 689.773438 1476.921875 L 677.324219 1441.585938 L 605.335938 1441.585938 L 592.898438 1476.921875 L 556.480469 1476.921875 L 619.570312 1305.570312 L 663.09375 1305.570312 L 726.183594 1476.921875 Z M 615.78125 1411.816406 L 666.890625 1411.816406 L 641.390625 1339.125 Z M 852.414062 1305.570312 L 887.871094 1305.570312 L 887.871094 1476.921875 L 846.71875 1476.921875 L 770.824219 1354.425781 L 770.824219 1476.921875 L 735.367188 1476.921875 L 735.367188 1305.570312 L 776.046875 1305.570312 L 852.402344 1427.355469 L 852.402344 1305.570312 Z M 915.675781 1476.921875 L 915.675781 1305.570312 L 977.691406 1305.570312 C 1032.355469 1305.570312 1059.394531 1339.957031 1059.394531 1391.1875 C 1059.394531 1442.53125 1032.355469 1476.921875 977.691406 1476.921875 L 915.671875 1476.921875 Z M 951.25 1445.496094 L 975.910156 1445.496094 C 1007.453125 1445.496094 1021.921875 1425.8125 1021.921875 1391.1875 C 1021.921875 1356.5625 1007.453125 1336.878906 975.910156 1336.878906 L 951.25 1336.878906 Z M 1133.085938 1479.296875 C 1096.332031 1479.296875 1067.636719 1461.628906 1062.417969 1429.492188 L 1099.171875 1421.070312 C 1101.539062 1440.28125 1115.65625 1450.242188 1134.507812 1450.242188 C 1148.976562 1450.242188 1160.480469 1443.839844 1160.359375 1429.371094 C 1160.238281 1413.246094 1141.273438 1408.144531 1120.398438 1401.746094 C 1095.261719 1393.914062 1068.34375 1384.667969 1068.34375 1353.121094 C 1068.34375 1321.226562 1094.429688 1303.199219 1128.8125 1303.199219 C 1158.941406 1303.199219 1189.296875 1315.410156 1196.175781 1348.261719 L 1161.785156 1356.800781 C 1158.582031 1339.71875 1147.082031 1332.253906 1130.957031 1332.253906 C 1116.605469 1332.253906 1104.394531 1338.179688 1104.394531 1352.289062 C 1104.394531 1365.457031 1121.230469 1369.839844 1140.675781 1375.652344 C 1166.527344 1383.484375 1197.121094 1393.441406 1197.121094 1427.589844 C 1197.121094 1463.996094 1166.644531 1479.296875 1133.085938 1479.296875 Z M 1289.324219 1479.296875 C 1238.925781 1479.296875 1201.6875 1445.023438 1201.6875 1391.1875 C 1201.6875 1337.351562 1238.925781 1303.199219 1289.324219 1303.199219 C 1327.507812 1303.199219 1358.101562 1322.761719 1370.316406 1355.257812 L 1337.109375 1367.351562 C 1329.523438 1347.429688 1311.378906 1335.925781 1289.324219 1335.925781 C 1259.796875 1335.925781 1237.144531 1356.5625 1237.144531 1391.1875 C 1237.144531 1425.8125 1259.792969 1446.558594 1289.324219 1446.558594 C 1311.378906 1446.558594 1329.523438 1434.945312 1337.109375 1415.023438 L 1370.316406 1427.117188 C 1358.101562 1459.605469 1327.507812 1479.296875 1289.324219 1479.296875 Z M 1497.609375 1476.921875 L 1485.160156 1441.585938 L 1413.1875 1441.585938 L 1400.738281 1476.921875 L 1364.328125 1476.921875 L 1427.417969 1305.570312 L 1470.9375 1305.570312 L 1534.023438 1476.921875 Z M 1423.617188 1411.816406 L 1474.726562 1411.816406 L 1449.226562 1339.125 Z M 1614.46875 1305.570312 C 1648.035156 1305.570312 1668.902344 1330.472656 1668.902344 1360.945312 C 1668.902344 1392.132812 1648.035156 1415.496094 1614.46875 1415.496094 L 1578.777344 1415.496094 L 1578.777344 1476.921875 L 1543.199219 1476.921875 L 1543.199219 1305.554688 L 1614.484375 1305.554688 Z M 1608.539062 1385.730469 C 1626.328125 1385.730469 1634.628906 1375.886719 1634.628906 1360.472656 C 1634.628906 1345.644531 1626.328125 1335.335938 1608.539062 1335.335938 L 1578.777344 1335.335938 L 1578.777344 1385.730469 Z M 1781.617188 1336.878906 L 1718.046875 1336.878906 L 1718.046875 1375.773438 L 1774.378906 1375.773438 L 1774.378906 1406.722656 L 1718.054688 1406.722656 L 1718.054688 1445.503906 L 1781.617188 1445.503906 L 1781.617188 1476.921875 L 1682.246094 1476.921875 L 1682.246094 1305.582031 L 1781.617188 1305.582031 L 1781.617188 1336.882812 Z M 1832.894531 1445.496094 L 1915.191406 1445.496094 L 1915.191406 1476.921875 L 1790.328125 1476.921875 L 1790.328125 1448.816406 L 1871.5625 1336.871094 L 1790.449219 1336.871094 L 1790.449219 1305.570312 L 1913.65625 1305.570312 L 1913.65625 1333.671875 Z M 1832.894531 1445.496094 "/>
<path style=" stroke:none;fill-rule:nonzero;fill:rgb(25.490196%,25.882353%,25.882353%);fill-opacity:1;" d="M 733.789062 1621.496094 L 743.121094 1639.511719 L 752.234375 1621.496094 C 752.550781 1620.964844 752.667969 1620.964844 753.089844 1620.964844 L 765.101562 1620.964844 C 765.742188 1620.964844 766.167969 1621.613281 765.957031 1622.144531 L 750.40625 1658.273438 L 750.40625 1690.761719 C 750.40625 1691.300781 749.972656 1691.726562 749.441406 1691.726562 L 736.789062 1691.726562 C 736.464844 1691.726562 736.042969 1691.292969 736.042969 1690.761719 L 736.042969 1658.273438 L 720.066406 1622.363281 C 719.847656 1621.605469 720.171875 1620.964844 720.929688 1620.964844 L 732.929688 1620.964844 C 733.363281 1620.964844 733.472656 1620.964844 733.796875 1621.496094 Z M 743.652344 1655.8125 L 757.058594 1627.933594 C 757.375 1627.285156 756.300781 1626.753906 755.878906 1627.503906 L 743.121094 1654.199219 L 730.035156 1627.503906 C 729.605469 1626.753906 728.429688 1627.285156 728.746094 1628.042969 L 742.472656 1655.8125 L 742.472656 1685.40625 C 742.472656 1686.152344 743.652344 1686.261719 743.652344 1685.40625 Z M 803.808594 1620 C 813.03125 1620 819.46875 1622.039062 823.535156 1626.429688 C 826.753906 1629.972656 828.257812 1635.011719 828.257812 1642.199219 L 828.257812 1670.394531 C 828.257812 1677.792969 826.753906 1682.933594 823.535156 1686.371094 C 819.359375 1690.660156 813.03125 1692.800781 803.808594 1692.800781 C 794.269531 1692.800781 788.046875 1690.660156 783.972656 1686.371094 C 780.867188 1682.933594 779.148438 1677.792969 779.148438 1670.394531 L 779.148438 1642.199219 C 779.148438 1635.011719 780.867188 1629.972656 783.972656 1626.328125 C 788.15625 1622.039062 794.484375 1620 803.808594 1620 Z M 813.996094 1667.175781 L 813.996094 1645.734375 C 813.996094 1636.300781 808.957031 1634.363281 804.347656 1634.363281 L 803.058594 1634.363281 C 796.199219 1634.363281 793.519531 1638.761719 793.519531 1645.734375 L 793.519531 1667.175781 C 793.519531 1676.605469 798.558594 1678.652344 803.058594 1678.652344 L 804.347656 1678.652344 C 811.210938 1678.652344 813.886719 1674.042969 813.996094 1667.175781 Z M 785.902344 1642.945312 L 785.902344 1669.535156 C 785.902344 1674.574219 787.199219 1678.753906 790.191406 1681.863281 C 792.980469 1684.65625 797.269531 1686.152344 802.527344 1686.152344 L 805.3125 1686.152344 C 815.394531 1686.152344 821.929688 1679.722656 821.929688 1669.535156 L 821.929688 1642.945312 C 821.929688 1632.003906 816.140625 1626.113281 805.3125 1626.113281 L 802.527344 1626.113281 C 791.582031 1626.113281 785.902344 1632.007812 785.902344 1642.945312 Z M 805.3125 1684.765625 L 802.527344 1684.765625 C 797.488281 1684.765625 793.734375 1683.46875 791.050781 1680.796875 C 788.363281 1678.125 786.972656 1674.359375 786.972656 1669.535156 L 786.972656 1642.945312 C 786.972656 1632.757812 792.445312 1627.394531 802.527344 1627.394531 L 805.3125 1627.394531 C 815.5 1627.394531 820.535156 1632.652344 820.535156 1642.945312 L 820.535156 1669.535156 C 820.535156 1674.035156 819.144531 1678.109375 816.25 1680.898438 C 813.179688 1683.449219 809.296875 1684.820312 805.304688 1684.765625 Z M 881.113281 1666.964844 L 881.113281 1621.929688 C 881.113281 1621.398438 881.546875 1620.964844 882.078125 1620.964844 L 894.304688 1620.964844 C 894.835938 1620.964844 895.269531 1621.398438 895.269531 1621.929688 L 895.269531 1670.394531 C 895.269531 1685.828125 886.796875 1692.800781 870.824219 1692.800781 C 855.707031 1692.800781 846.273438 1686.792969 846.273438 1670.394531 L 846.273438 1621.929688 C 846.273438 1621.398438 846.699219 1620.964844 847.230469 1620.964844 L 859.566406 1620.964844 C 860.097656 1620.964844 860.53125 1621.398438 860.53125 1621.929688 L 860.53125 1666.964844 C 860.53125 1676.289062 865.785156 1678.328125 870.175781 1678.328125 L 871.464844 1678.328125 C 878.113281 1678.328125 881.113281 1673.828125 881.113281 1666.964844 Z M 852.917969 1627.828125 L 852.917969 1669.535156 C 852.917969 1679.183594 859.457031 1686.152344 869.644531 1686.152344 L 872.324219 1686.152344 C 882.511719 1686.152344 889.15625 1678.859375 889.15625 1669.535156 L 889.15625 1627.828125 C 889.15625 1626.863281 887.867188 1626.753906 887.867188 1627.828125 L 887.867188 1669.535156 C 887.867188 1678.328125 881.546875 1684.765625 872.324219 1684.765625 L 869.644531 1684.765625 C 860.636719 1684.765625 854.199219 1678.96875 854.199219 1669.535156 L 854.199219 1627.828125 C 854.199219 1626.863281 852.917969 1626.863281 852.917969 1627.828125 Z M 954.777344 1663.746094 C 953.273438 1666.859375 951.128906 1669.21875 948.125 1670.609375 L 957.132812 1690.445312 C 957.457031 1691.09375 957.023438 1691.726562 956.382812 1691.726562 L 943.191406 1691.726562 C 942.761719 1691.726562 942.550781 1691.511719 942.445312 1691.195312 L 934.085938 1672.964844 L 928.613281 1672.964844 L 928.613281 1690.761719 C 928.613281 1691.300781 928.179688 1691.726562 927.648438 1691.726562 L 915.320312 1691.726562 C 914.890625 1691.726562 914.566406 1691.292969 914.566406 1690.761719 L 914.566406 1621.929688 C 914.566406 1621.398438 914.890625 1620.964844 915.320312 1620.964844 L 937.621094 1620.964844 C 949.523438 1620.964844 956.699219 1627.71875 956.699219 1640.261719 L 956.699219 1653.773438 C 956.699219 1657.527344 956.058594 1661.0625 954.777344 1663.746094 Z M 942.660156 1650.449219 L 942.660156 1643.480469 C 942.660156 1635.976562 939.875 1635.226562 931.722656 1635.226562 L 928.613281 1635.226562 L 928.613281 1658.914062 L 931.722656 1658.914062 C 938.476562 1658.914062 942.453125 1658.816406 942.660156 1650.449219 Z M 922.390625 1685.1875 L 922.390625 1666.859375 L 937.835938 1666.859375 L 946.835938 1685.40625 C 947.050781 1685.9375 948.347656 1685.730469 948.023438 1684.757812 L 939.015625 1666.535156 C 947.375 1665.351562 950.269531 1660.960938 950.269531 1653.027344 L 950.269531 1639.621094 C 950.269531 1627.828125 939.550781 1626.863281 936.230469 1626.863281 L 921.757812 1626.863281 C 921.542969 1626.863281 921.109375 1627.1875 921.109375 1627.507812 L 921.109375 1685.1875 C 921.109375 1685.9375 922.390625 1685.9375 922.390625 1685.1875 Z M 948.988281 1639.621094 L 948.988281 1653.027344 C 948.988281 1663.964844 942.019531 1665.460938 935.257812 1665.460938 L 922.390625 1665.460938 L 922.390625 1628.257812 L 936.222656 1628.257812 C 947.808594 1628.257812 948.988281 1636.085938 948.988281 1639.621094 Z M 1043.453125 1620.964844 C 1050.738281 1620.964844 1056.203125 1623.003906 1059.847656 1626.96875 C 1063.066406 1630.503906 1064.671875 1635.761719 1064.671875 1642.199219 L 1064.671875 1670.609375 C 1064.671875 1683.582031 1057.167969 1691.726562 1043.445312 1691.726562 L 1016.640625 1691.726562 C 1016.105469 1691.726562 1015.78125 1691.292969 1015.78125 1690.761719 L 1015.78125 1621.929688 C 1015.78125 1621.398438 1016.105469 1620.964844 1016.648438 1620.964844 Z M 1050.632812 1667.390625 L 1050.632812 1645.410156 C 1050.632812 1638.65625 1047.089844 1634.363281 1039.585938 1634.363281 L 1029.9375 1634.363281 L 1029.9375 1678.328125 L 1039.585938 1678.328125 C 1046.015625 1678.328125 1050.632812 1674.152344 1050.632812 1667.390625 Z M 1022.320312 1627.503906 L 1022.320312 1685.1875 C 1022.320312 1685.621094 1022.753906 1685.730469 1022.96875 1685.730469 L 1040.441406 1685.730469 C 1052.777344 1685.730469 1058.347656 1678.328125 1058.347656 1671.464844 L 1058.347656 1644.019531 C 1058.347656 1632.652344 1052.34375 1626.863281 1040.121094 1626.863281 L 1022.96875 1626.863281 C 1022.753906 1626.863281 1022.320312 1626.96875 1022.320312 1627.507812 Z M 1057.0625 1644.019531 L 1057.0625 1671.464844 C 1057.0625 1680.039062 1048.484375 1684.546875 1040.441406 1684.546875 L 1023.609375 1684.546875 L 1023.609375 1628.257812 L 1040.121094 1628.257812 C 1051.378906 1628.257812 1057.0625 1633.296875 1057.0625 1644.019531 Z M 1123.644531 1663.746094 C 1122.140625 1666.859375 1120.003906 1669.21875 1117 1670.609375 L 1126 1690.445312 C 1126.324219 1691.09375 1125.898438 1691.726562 1125.253906 1691.726562 L 1112.070312 1691.726562 C 1111.636719 1691.726562 1111.421875 1691.511719 1111.3125 1691.195312 L 1102.953125 1672.964844 L 1097.480469 1672.964844 L 1097.480469 1690.761719 C 1097.480469 1691.300781 1097.050781 1691.726562 1096.515625 1691.726562 L 1084.191406 1691.726562 C 1083.757812 1691.726562 1083.441406 1691.292969 1083.441406 1690.761719 L 1083.441406 1621.929688 C 1083.441406 1621.398438 1083.757812 1620.964844 1084.191406 1620.964844 L 1106.488281 1620.964844 C 1118.390625 1620.964844 1125.574219 1627.71875 1125.574219 1640.261719 L 1125.574219 1653.773438 C 1125.574219 1657.527344 1124.929688 1661.0625 1123.644531 1663.746094 Z M 1111.527344 1650.449219 L 1111.527344 1643.480469 C 1111.527344 1635.976562 1108.742188 1635.226562 1100.59375 1635.226562 L 1097.480469 1635.226562 L 1097.480469 1658.914062 L 1100.59375 1658.914062 C 1107.34375 1658.914062 1111.320312 1658.816406 1111.535156 1650.449219 Z M 1091.269531 1685.1875 L 1091.269531 1666.859375 L 1106.703125 1666.859375 L 1115.710938 1685.40625 C 1115.929688 1685.9375 1117.210938 1685.730469 1116.894531 1684.757812 L 1107.886719 1666.535156 C 1116.246094 1665.351562 1119.144531 1660.960938 1119.144531 1653.027344 L 1119.144531 1639.621094 C 1119.144531 1627.828125 1108.417969 1626.863281 1105.097656 1626.863281 L 1090.628906 1626.863281 C 1090.410156 1626.863281 1089.980469 1627.1875 1089.980469 1627.507812 L 1089.980469 1685.1875 C 1089.980469 1685.9375 1091.269531 1685.9375 1091.269531 1685.1875 Z M 1117.859375 1639.621094 L 1117.859375 1653.027344 C 1117.859375 1663.964844 1110.886719 1665.460938 1104.132812 1665.460938 L 1091.269531 1665.460938 L 1091.269531 1628.257812 L 1105.09375 1628.257812 C 1116.675781 1628.257812 1117.859375 1636.085938 1117.859375 1639.621094 Z M 1145.410156 1691.726562 C 1144.871094 1691.726562 1144.546875 1691.292969 1144.546875 1690.761719 L 1144.546875 1621.929688 C 1144.546875 1621.398438 1144.871094 1620.964844 1145.410156 1620.964844 L 1181.867188 1620.964844 C 1182.40625 1620.964844 1182.832031 1621.398438 1182.832031 1621.929688 L 1182.832031 1633.398438 C 1182.832031 1633.9375 1182.398438 1634.363281 1181.867188 1634.363281 L 1158.703125 1634.363281 L 1158.703125 1648.953125 L 1176.71875 1648.953125 C 1177.257812 1648.953125 1177.582031 1649.382812 1177.582031 1649.914062 L 1177.582031 1661.601562 C 1177.582031 1662.132812 1177.257812 1662.566406 1176.71875 1662.566406 L 1158.703125 1662.566406 L 1158.703125 1678.328125 L 1181.867188 1678.328125 C 1182.40625 1678.328125 1182.832031 1678.757812 1182.832031 1679.292969 L 1182.832031 1690.761719 C 1182.832031 1691.300781 1182.398438 1691.726562 1181.867188 1691.726562 Z M 1150.777344 1627.71875 L 1150.777344 1684.765625 C 1150.777344 1685.40625 1151.207031 1685.621094 1151.632812 1685.621094 L 1176.292969 1685.621094 C 1177.257812 1685.621094 1177.042969 1684.324219 1176.292969 1684.324219 L 1152.171875 1684.324219 L 1152.171875 1656.34375 L 1171.902344 1656.34375 C 1172.542969 1656.34375 1172.542969 1654.847656 1171.902344 1654.847656 L 1152.171875 1654.847656 L 1152.171875 1628.257812 L 1176.292969 1628.257812 C 1177.042969 1628.257812 1177.257812 1626.863281 1176.292969 1626.863281 L 1151.632812 1626.863281 C 1151.199219 1626.863281 1150.769531 1627.1875 1150.769531 1627.726562 Z M 1214.351562 1621.605469 C 1214.460938 1621.289062 1214.675781 1620.964844 1215.101562 1620.964844 L 1228.398438 1620.964844 C 1228.832031 1620.964844 1229.046875 1621.289062 1229.148438 1621.613281 L 1247.703125 1690.554688 C 1247.804688 1691.195312 1247.378906 1691.726562 1246.730469 1691.726562 L 1234.511719 1691.726562 C 1234.1875 1691.726562 1233.863281 1691.511719 1233.761719 1691.085938 L 1229.578125 1676.074219 L 1213.921875 1676.074219 L 1209.84375 1691.085938 C 1209.738281 1691.519531 1209.519531 1691.734375 1209.097656 1691.734375 L 1196.761719 1691.734375 C 1196.113281 1691.734375 1195.691406 1691.195312 1195.796875 1690.554688 Z M 1217.355469 1662.78125 L 1226.253906 1662.78125 L 1221.644531 1646.589844 Z M 1233.863281 1669.105469 L 1238.804688 1685.1875 C 1239.019531 1685.835938 1240.191406 1685.730469 1239.867188 1684.863281 L 1222.71875 1627.828125 C 1222.394531 1626.429688 1220.574219 1626.328125 1220.25 1627.828125 L 1203.632812 1684.863281 C 1203.308594 1685.621094 1204.496094 1685.945312 1204.8125 1685.296875 L 1209.527344 1669.105469 Z M 1209.851562 1667.714844 L 1221.539062 1628.257812 L 1233.4375 1667.714844 Z M 1321.890625 1620.964844 C 1322.429688 1620.964844 1322.855469 1621.398438 1322.855469 1621.929688 L 1322.855469 1690.761719 C 1322.855469 1691.300781 1322.425781 1691.726562 1321.890625 1691.726562 L 1310.207031 1691.726562 C 1309.890625 1691.726562 1309.347656 1691.292969 1309.347656 1690.761719 L 1309.347656 1651.089844 L 1297.554688 1691.085938 C 1297.339844 1691.519531 1297.125 1691.734375 1296.699219 1691.734375 L 1288.230469 1691.734375 C 1287.90625 1691.734375 1287.476562 1691.519531 1287.367188 1691.085938 L 1276.328125 1650.339844 L 1276.328125 1690.761719 C 1276.328125 1691.300781 1275.898438 1691.726562 1275.363281 1691.726562 L 1263.464844 1691.726562 C 1263.03125 1691.726562 1262.707031 1691.292969 1262.707031 1690.761719 L 1262.707031 1621.929688 C 1262.707031 1621.398438 1263.03125 1620.964844 1263.464844 1620.964844 L 1278.46875 1620.964844 C 1278.898438 1620.964844 1279.332031 1621.289062 1279.433594 1621.613281 L 1292.40625 1665.027344 L 1306.664062 1621.613281 C 1306.664062 1621.289062 1306.996094 1620.964844 1307.417969 1620.964844 Z M 1315.246094 1685.1875 C 1315.246094 1685.9375 1316.640625 1686.152344 1316.640625 1685.1875 L 1316.640625 1627.402344 C 1316.640625 1627.1875 1316.320312 1626.863281 1315.996094 1626.863281 L 1310.953125 1626.863281 C 1310.53125 1626.863281 1310.421875 1627.1875 1310.207031 1627.402344 L 1292.40625 1680.464844 L 1274.71875 1627.292969 C 1274.71875 1626.96875 1274.5 1626.863281 1274.183594 1626.863281 L 1268.929688 1626.863281 C 1268.578125 1626.882812 1268.300781 1627.160156 1268.28125 1627.507812 L 1268.28125 1685.1875 C 1268.28125 1685.9375 1269.675781 1686.152344 1269.675781 1685.1875 L 1269.675781 1628.257812 L 1273.644531 1628.257812 L 1291.765625 1682.726562 C 1292.199219 1683.476562 1292.515625 1683.257812 1293.054688 1682.726562 L 1311.277344 1628.257812 L 1315.246094 1628.257812 Z M 1414.535156 1648.84375 L 1414.535156 1621.929688 C 1414.535156 1621.398438 1414.964844 1620.964844 1415.5 1620.964844 L 1427.71875 1620.964844 C 1428.257812 1620.964844 1428.679688 1621.398438 1428.679688 1621.929688 L 1428.679688 1690.761719 C 1428.679688 1691.300781 1428.25 1691.726562 1427.71875 1691.726562 L 1415.5 1691.726562 C 1415.242188 1691.726562 1414.996094 1691.628906 1414.8125 1691.445312 C 1414.632812 1691.265625 1414.53125 1691.019531 1414.535156 1690.761719 L 1414.535156 1662.25 L 1397.160156 1662.25 L 1397.160156 1690.761719 C 1397.160156 1691.300781 1396.726562 1691.726562 1396.195312 1691.726562 L 1383.976562 1691.726562 C 1383.4375 1691.726562 1383.113281 1691.292969 1383.113281 1690.761719 L 1383.113281 1621.929688 C 1383.113281 1621.398438 1383.4375 1620.964844 1383.976562 1620.964844 L 1396.195312 1620.964844 C 1396.734375 1620.964844 1397.160156 1621.398438 1397.160156 1621.929688 L 1397.160156 1648.84375 Z M 1389.332031 1685.082031 C 1389.332031 1685.945312 1390.730469 1685.828125 1390.730469 1685.082031 L 1390.730469 1656.351562 L 1420.855469 1656.351562 L 1420.855469 1685.082031 C 1420.855469 1685.828125 1422.035156 1685.945312 1422.035156 1685.082031 L 1422.035156 1627.402344 C 1422.035156 1626.644531 1420.855469 1626.429688 1420.855469 1627.402344 L 1420.855469 1654.847656 L 1390.730469 1654.847656 L 1390.730469 1627.402344 C 1390.730469 1626.644531 1389.332031 1626.644531 1389.332031 1627.402344 Z M 1471.996094 1620 C 1481.210938 1620 1487.648438 1622.039062 1491.726562 1626.429688 C 1494.9375 1629.972656 1496.441406 1635.011719 1496.441406 1642.199219 L 1496.441406 1670.394531 C 1496.441406 1677.792969 1494.9375 1682.933594 1491.726562 1686.371094 C 1487.542969 1690.660156 1481.210938 1692.800781 1471.996094 1692.800781 C 1462.449219 1692.800781 1456.230469 1690.660156 1452.160156 1686.371094 C 1449.050781 1682.933594 1447.335938 1677.792969 1447.335938 1670.394531 L 1447.335938 1642.199219 C 1447.335938 1635.011719 1449.050781 1629.972656 1452.160156 1626.328125 C 1456.335938 1622.039062 1462.671875 1620 1471.996094 1620 Z M 1482.175781 1667.175781 L 1482.175781 1645.734375 C 1482.175781 1636.300781 1477.136719 1634.363281 1472.53125 1634.363281 L 1471.242188 1634.363281 C 1464.378906 1634.363281 1461.699219 1638.761719 1461.699219 1645.734375 L 1461.699219 1667.175781 C 1461.699219 1676.605469 1466.742188 1678.652344 1471.242188 1678.652344 L 1472.535156 1678.652344 C 1479.390625 1678.652344 1482.070312 1674.042969 1482.183594 1667.175781 Z M 1454.089844 1642.945312 L 1454.089844 1669.535156 C 1454.089844 1674.574219 1455.371094 1678.753906 1458.375 1681.863281 C 1461.167969 1684.65625 1465.453125 1686.152344 1470.707031 1686.152344 L 1473.496094 1686.152344 C 1483.574219 1686.152344 1490.113281 1679.722656 1490.113281 1669.535156 L 1490.113281 1642.945312 C 1490.113281 1632.003906 1484.324219 1626.113281 1473.496094 1626.113281 L 1470.707031 1626.113281 C 1459.769531 1626.113281 1454.089844 1632.007812 1454.089844 1642.945312 Z M 1473.496094 1684.765625 L 1470.707031 1684.765625 C 1465.667969 1684.765625 1461.917969 1683.46875 1459.238281 1680.796875 C 1456.558594 1678.125 1455.164062 1674.359375 1455.164062 1669.535156 L 1455.164062 1642.945312 C 1455.164062 1632.757812 1460.636719 1627.394531 1470.707031 1627.394531 L 1473.496094 1627.394531 C 1483.683594 1627.394531 1488.722656 1632.652344 1488.722656 1642.945312 L 1488.722656 1669.535156 C 1488.722656 1674.035156 1487.324219 1678.109375 1484.429688 1680.898438 C 1481.363281 1683.449219 1477.484375 1684.820312 1473.496094 1684.765625 Z M 1549.304688 1666.964844 L 1549.304688 1621.929688 C 1549.304688 1621.398438 1549.734375 1620.964844 1550.269531 1620.964844 L 1562.488281 1620.964844 C 1563.027344 1620.964844 1563.453125 1621.398438 1563.453125 1621.929688 L 1563.453125 1670.394531 C 1563.453125 1685.828125 1554.984375 1692.800781 1539.007812 1692.800781 C 1523.886719 1692.800781 1514.457031 1686.792969 1514.457031 1670.394531 L 1514.457031 1621.929688 C 1514.457031 1621.398438 1514.886719 1620.964844 1515.421875 1620.964844 L 1527.746094 1620.964844 C 1528.285156 1620.964844 1528.710938 1621.398438 1528.710938 1621.929688 L 1528.710938 1666.964844 C 1528.710938 1676.289062 1533.96875 1678.328125 1538.359375 1678.328125 L 1539.65625 1678.328125 C 1546.300781 1678.328125 1549.304688 1673.828125 1549.304688 1666.964844 Z M 1521.101562 1627.828125 L 1521.101562 1669.535156 C 1521.101562 1679.183594 1527.636719 1686.152344 1537.828125 1686.152344 L 1540.503906 1686.152344 C 1550.691406 1686.152344 1557.339844 1678.859375 1557.339844 1669.535156 L 1557.339844 1627.828125 C 1557.339844 1626.863281 1556.058594 1626.753906 1556.058594 1627.828125 L 1556.058594 1669.535156 C 1556.058594 1678.328125 1549.726562 1684.765625 1540.503906 1684.765625 L 1537.828125 1684.765625 C 1528.828125 1684.765625 1522.390625 1678.96875 1522.390625 1669.535156 L 1522.390625 1627.828125 C 1522.390625 1626.863281 1521.101562 1626.863281 1521.101562 1627.828125 Z M 1606.875 1648.304688 C 1615.023438 1652.164062 1625.636719 1658.273438 1625.636719 1669.328125 C 1625.636719 1672.539062 1625.105469 1678.757812 1621.5625 1684.015625 C 1617.601562 1689.90625 1611.382812 1692.800781 1602.800781 1692.800781 C 1593.691406 1692.800781 1583.070312 1688.40625 1579.753906 1678.433594 C 1579.644531 1678.109375 1579.753906 1677.789062 1580.070312 1677.570312 L 1589.933594 1669.105469 C 1590.363281 1668.789062 1591.011719 1668.789062 1591.328125 1669.320312 C 1591.546875 1669.859375 1591.976562 1670.71875 1592.511719 1671.789062 C 1594.117188 1675.109375 1597.980469 1678.433594 1602.265625 1678.433594 C 1605.59375 1678.433594 1610.09375 1676.613281 1610.09375 1671.464844 C 1610.09375 1666.535156 1603.339844 1663.746094 1599.15625 1662.132812 C 1594.332031 1660.203125 1589.398438 1657.742188 1585.21875 1654.097656 C 1580.824219 1650.023438 1578.679688 1645.515625 1578.679688 1640.160156 C 1578.679688 1626.753906 1591.003906 1620 1602.699219 1620 C 1611.914062 1620 1618.777344 1624.824219 1623.28125 1634.363281 C 1623.5 1634.796875 1623.28125 1635.328125 1622.960938 1635.542969 L 1613.417969 1642.199219 C 1612.988281 1642.414062 1612.769531 1642.414062 1612.339844 1641.875 C 1608.695312 1636.617188 1605.484375 1634.15625 1601.195312 1634.15625 C 1598.941406 1634.15625 1593.691406 1635.011719 1593.691406 1638.980469 C 1593.691406 1643.804688 1602.589844 1646.265625 1606.875 1648.304688 Z M 1587.363281 1677.894531 C 1590.039062 1683.257812 1597.441406 1686.371094 1603.445312 1686.371094 C 1611.273438 1686.371094 1617.59375 1681.003906 1618.460938 1672.863281 C 1619.523438 1662.890625 1611.699219 1658.597656 1603.988281 1654.738281 L 1600.554688 1653.234375 C 1592.617188 1649.699219 1586.828125 1647.023438 1586.828125 1639.628906 C 1586.828125 1631.46875 1594.332031 1627.71875 1601.734375 1627.71875 C 1608.488281 1627.71875 1612.03125 1631.6875 1613.84375 1634.15625 C 1614.492188 1635.011719 1615.566406 1634.261719 1614.925781 1633.398438 C 1613.09375 1631.152344 1609.234375 1626.429688 1601.726562 1626.429688 C 1593.257812 1626.429688 1585.539062 1630.613281 1585.539062 1639.621094 C 1585.539062 1647.664062 1591.96875 1650.773438 1600.121094 1654.523438 L 1603.445312 1656.128906 C 1614.058594 1661.167969 1617.917969 1665.894531 1617.0625 1672.753906 C 1615.457031 1683.691406 1607.089844 1685.082031 1603.445312 1685.082031 C 1595.40625 1685.082031 1590.039062 1680.257812 1588.433594 1677.253906 C 1587.894531 1676.722656 1587.144531 1677.253906 1587.363281 1677.902344 Z M 1642.585938 1691.726562 C 1642.046875 1691.726562 1641.722656 1691.292969 1641.722656 1690.761719 L 1641.722656 1621.929688 C 1641.722656 1621.398438 1642.046875 1620.964844 1642.585938 1620.964844 L 1679.03125 1620.964844 C 1679.574219 1620.964844 1679.996094 1621.398438 1679.996094 1621.929688 L 1679.996094 1633.398438 C 1679.996094 1633.9375 1679.566406 1634.363281 1679.03125 1634.363281 L 1655.878906 1634.363281 L 1655.878906 1648.953125 L 1673.890625 1648.953125 C 1674.425781 1648.953125 1674.75 1649.382812 1674.75 1649.914062 L 1674.75 1661.601562 C 1674.75 1662.132812 1674.425781 1662.566406 1673.886719 1662.566406 L 1655.878906 1662.566406 L 1655.878906 1678.328125 L 1679.03125 1678.328125 C 1679.574219 1678.328125 1679.996094 1678.757812 1679.996094 1679.292969 L 1679.996094 1690.761719 C 1679.996094 1691.300781 1679.566406 1691.726562 1679.03125 1691.726562 L 1642.578125 1691.726562 Z M 1647.941406 1627.71875 L 1647.941406 1684.765625 C 1647.941406 1685.40625 1648.375 1685.621094 1648.800781 1685.621094 L 1673.460938 1685.621094 C 1674.425781 1685.621094 1674.207031 1684.324219 1673.460938 1684.324219 L 1649.339844 1684.324219 L 1649.339844 1656.34375 L 1669.066406 1656.34375 C 1669.707031 1656.34375 1669.707031 1654.847656 1669.066406 1654.847656 L 1649.339844 1654.847656 L 1649.339844 1628.257812 L 1673.460938 1628.257812 C 1674.207031 1628.257812 1674.425781 1626.863281 1673.460938 1626.863281 L 1648.800781 1626.863281 C 1648.367188 1626.863281 1647.9375 1627.1875 1647.9375 1627.726562 Z M 1647.941406 1627.71875 "/>
</g>
</svg>
