<?xml version="1.0" encoding="UTF-8"?>
<svg xmlns="http://www.w3.org/2000/svg" xmlns:xlink="http://www.w3.org/1999/xlink" width="px" height="px" viewBox="0 0 1536 1536" version="1.1">
<defs>
<clipPath id="clip1">
  <path d="M 841 428 L 1536 428 L 1536 1489 L 841 1489 Z M 841 428 "/>
</clipPath>
<clipPath id="clip2">
  <path d="M 768 0 C 1192.152344 0 1536 343.847656 1536 768 C 1536 1192.152344 1192.152344 1536 768 1536 C 343.847656 1536 0 1192.152344 0 768 C 0 343.847656 343.847656 0 768 0 Z M 768 0 "/>
</clipPath>
<clipPath id="clip3">
  <path d="M 1159 883 L 1536 883 L 1536 1536 L 1159 1536 Z M 1159 883 "/>
</clipPath>
<clipPath id="clip4">
  <path d="M 768 0 C 1192.152344 0 1536 343.847656 1536 768 C 1536 1192.152344 1192.152344 1536 768 1536 C 343.847656 1536 0 1192.152344 0 768 C 0 343.847656 343.847656 0 768 0 Z M 768 0 "/>
</clipPath>
<clipPath id="clip5">
  <path d="M 1176 898 L 1536 898 L 1536 1536 L 1176 1536 Z M 1176 898 "/>
</clipPath>
<clipPath id="clip6">
  <path d="M 768 0 C 1192.152344 0 1536 343.847656 1536 768 C 1536 1192.152344 1192.152344 1536 768 1536 C 343.847656 1536 0 1192.152344 0 768 C 0 343.847656 343.847656 0 768 0 Z M 768 0 "/>
</clipPath>
<clipPath id="clip7">
  <path d="M 1182 908 L 1536 908 L 1536 1536 L 1182 1536 Z M 1182 908 "/>
</clipPath>
<clipPath id="clip8">
  <path d="M 768 0 C 1192.152344 0 1536 343.847656 1536 768 C 1536 1192.152344 1192.152344 1536 768 1536 C 343.847656 1536 0 1192.152344 0 768 C 0 343.847656 343.847656 0 768 0 Z M 768 0 "/>
</clipPath>
<clipPath id="clip9">
  <path d="M 1187 925 L 1536 925 L 1536 1536 L 1187 1536 Z M 1187 925 "/>
</clipPath>
<clipPath id="clip10">
  <path d="M 768 0 C 1192.152344 0 1536 343.847656 1536 768 C 1536 1192.152344 1192.152344 1536 768 1536 C 343.847656 1536 0 1192.152344 0 768 C 0 343.847656 343.847656 0 768 0 Z M 768 0 "/>
</clipPath>
<clipPath id="clip11">
  <path d="M 1185 925 L 1536 925 L 1536 1536 L 1185 1536 Z M 1185 925 "/>
</clipPath>
<clipPath id="clip12">
  <path d="M 768 0 C 1192.152344 0 1536 343.847656 1536 768 C 1536 1192.152344 1192.152344 1536 768 1536 C 343.847656 1536 0 1192.152344 0 768 C 0 343.847656 343.847656 0 768 0 Z M 768 0 "/>
</clipPath>
<clipPath id="clip13">
  <path d="M 1177 943 L 1536 943 L 1536 1536 L 1177 1536 Z M 1177 943 "/>
</clipPath>
<clipPath id="clip14">
  <path d="M 768 0 C 1192.152344 0 1536 343.847656 1536 768 C 1536 1192.152344 1192.152344 1536 768 1536 C 343.847656 1536 0 1192.152344 0 768 C 0 343.847656 343.847656 0 768 0 Z M 768 0 "/>
</clipPath>
<clipPath id="clip15">
  <path d="M 1175 958 L 1536 958 L 1536 1536 L 1175 1536 Z M 1175 958 "/>
</clipPath>
<clipPath id="clip16">
  <path d="M 768 0 C 1192.152344 0 1536 343.847656 1536 768 C 1536 1192.152344 1192.152344 1536 768 1536 C 343.847656 1536 0 1192.152344 0 768 C 0 343.847656 343.847656 0 768 0 Z M 768 0 "/>
</clipPath>
<clipPath id="clip17">
  <path d="M 1146 959 L 1536 959 L 1536 1536 L 1146 1536 Z M 1146 959 "/>
</clipPath>
<clipPath id="clip18">
  <path d="M 768 0 C 1192.152344 0 1536 343.847656 1536 768 C 1536 1192.152344 1192.152344 1536 768 1536 C 343.847656 1536 0 1192.152344 0 768 C 0 343.847656 343.847656 0 768 0 Z M 768 0 "/>
</clipPath>
<clipPath id="clip19">
  <path d="M 1124 970 L 1536 970 L 1536 1536 L 1124 1536 Z M 1124 970 "/>
</clipPath>
<clipPath id="clip20">
  <path d="M 768 0 C 1192.152344 0 1536 343.847656 1536 768 C 1536 1192.152344 1192.152344 1536 768 1536 C 343.847656 1536 0 1192.152344 0 768 C 0 343.847656 343.847656 0 768 0 Z M 768 0 "/>
</clipPath>
<clipPath id="clip21">
  <path d="M 1113 965 L 1536 965 L 1536 1536 L 1113 1536 Z M 1113 965 "/>
</clipPath>
<clipPath id="clip22">
  <path d="M 768 0 C 1192.152344 0 1536 343.847656 1536 768 C 1536 1192.152344 1192.152344 1536 768 1536 C 343.847656 1536 0 1192.152344 0 768 C 0 343.847656 343.847656 0 768 0 Z M 768 0 "/>
</clipPath>
<clipPath id="clip23">
  <path d="M 1012 878 L 1536 878 L 1536 1536 L 1012 1536 Z M 1012 878 "/>
</clipPath>
<clipPath id="clip24">
  <path d="M 768 0 C 1192.152344 0 1536 343.847656 1536 768 C 1536 1192.152344 1192.152344 1536 768 1536 C 343.847656 1536 0 1192.152344 0 768 C 0 343.847656 343.847656 0 768 0 Z M 768 0 "/>
</clipPath>
<clipPath id="clip25">
  <path d="M 809 705 L 1536 705 L 1536 1536 L 809 1536 Z M 809 705 "/>
</clipPath>
<clipPath id="clip26">
  <path d="M 768 0 C 1192.152344 0 1536 343.847656 1536 768 C 1536 1192.152344 1192.152344 1536 768 1536 C 343.847656 1536 0 1192.152344 0 768 C 0 343.847656 343.847656 0 768 0 Z M 768 0 "/>
</clipPath>
<clipPath id="clip27">
  <path d="M 709 705 L 1536 705 L 1536 1536 L 709 1536 Z M 709 705 "/>
</clipPath>
<clipPath id="clip28">
  <path d="M 768 0 C 1192.152344 0 1536 343.847656 1536 768 C 1536 1192.152344 1192.152344 1536 768 1536 C 343.847656 1536 0 1192.152344 0 768 C 0 343.847656 343.847656 0 768 0 Z M 768 0 "/>
</clipPath>
<clipPath id="clip29">
  <path d="M 939 931 L 1536 931 L 1536 1536 L 939 1536 Z M 939 931 "/>
</clipPath>
<clipPath id="clip30">
  <path d="M 768 0 C 1192.152344 0 1536 343.847656 1536 768 C 1536 1192.152344 1192.152344 1536 768 1536 C 343.847656 1536 0 1192.152344 0 768 C 0 343.847656 343.847656 0 768 0 Z M 768 0 "/>
</clipPath>
<clipPath id="clip31">
  <path d="M 1005 988 L 1536 988 L 1536 1536 L 1005 1536 Z M 1005 988 "/>
</clipPath>
<clipPath id="clip32">
  <path d="M 768 0 C 1192.152344 0 1536 343.847656 1536 768 C 1536 1192.152344 1192.152344 1536 768 1536 C 343.847656 1536 0 1192.152344 0 768 C 0 343.847656 343.847656 0 768 0 Z M 768 0 "/>
</clipPath>
<clipPath id="clip33">
  <path d="M 1003 986 L 1536 986 L 1536 1536 L 1003 1536 Z M 1003 986 "/>
</clipPath>
<clipPath id="clip34">
  <path d="M 768 0 C 1192.152344 0 1536 343.847656 1536 768 C 1536 1192.152344 1192.152344 1536 768 1536 C 343.847656 1536 0 1192.152344 0 768 C 0 343.847656 343.847656 0 768 0 Z M 768 0 "/>
</clipPath>
<clipPath id="clip35">
  <path d="M 969 878 L 1536 878 L 1536 1536 L 969 1536 Z M 969 878 "/>
</clipPath>
<clipPath id="clip36">
  <path d="M 768 0 C 1192.152344 0 1536 343.847656 1536 768 C 1536 1192.152344 1192.152344 1536 768 1536 C 343.847656 1536 0 1192.152344 0 768 C 0 343.847656 343.847656 0 768 0 Z M 768 0 "/>
</clipPath>
<clipPath id="clip37">
  <path d="M 954 929 L 1536 929 L 1536 1536 L 954 1536 Z M 954 929 "/>
</clipPath>
<clipPath id="clip38">
  <path d="M 768 0 C 1192.152344 0 1536 343.847656 1536 768 C 1536 1192.152344 1192.152344 1536 768 1536 C 343.847656 1536 0 1192.152344 0 768 C 0 343.847656 343.847656 0 768 0 Z M 768 0 "/>
</clipPath>
<clipPath id="clip39">
  <path d="M 1039 1016 L 1536 1016 L 1536 1536 L 1039 1536 Z M 1039 1016 "/>
</clipPath>
<clipPath id="clip40">
  <path d="M 768 0 C 1192.152344 0 1536 343.847656 1536 768 C 1536 1192.152344 1192.152344 1536 768 1536 C 343.847656 1536 0 1192.152344 0 768 C 0 343.847656 343.847656 0 768 0 Z M 768 0 "/>
</clipPath>
<clipPath id="clip41">
  <path d="M 1010 992 L 1536 992 L 1536 1536 L 1010 1536 Z M 1010 992 "/>
</clipPath>
<clipPath id="clip42">
  <path d="M 768 0 C 1192.152344 0 1536 343.847656 1536 768 C 1536 1192.152344 1192.152344 1536 768 1536 C 343.847656 1536 0 1192.152344 0 768 C 0 343.847656 343.847656 0 768 0 Z M 768 0 "/>
</clipPath>
<clipPath id="clip43">
  <path d="M 904 902 L 1536 902 L 1536 1536 L 904 1536 Z M 904 902 "/>
</clipPath>
<clipPath id="clip44">
  <path d="M 768 0 C 1192.152344 0 1536 343.847656 1536 768 C 1536 1192.152344 1192.152344 1536 768 1536 C 343.847656 1536 0 1192.152344 0 768 C 0 343.847656 343.847656 0 768 0 Z M 768 0 "/>
</clipPath>
<clipPath id="clip45">
  <path d="M 902 900 L 1536 900 L 1536 1536 L 902 1536 Z M 902 900 "/>
</clipPath>
<clipPath id="clip46">
  <path d="M 768 0 C 1192.152344 0 1536 343.847656 1536 768 C 1536 1192.152344 1192.152344 1536 768 1536 C 343.847656 1536 0 1192.152344 0 768 C 0 343.847656 343.847656 0 768 0 Z M 768 0 "/>
</clipPath>
<clipPath id="clip47">
  <path d="M 1072 965 L 1536 965 L 1536 1536 L 1072 1536 Z M 1072 965 "/>
</clipPath>
<clipPath id="clip48">
  <path d="M 768 0 C 1192.152344 0 1536 343.847656 1536 768 C 1536 1192.152344 1192.152344 1536 768 1536 C 343.847656 1536 0 1192.152344 0 768 C 0 343.847656 343.847656 0 768 0 Z M 768 0 "/>
</clipPath>
<clipPath id="clip49">
  <path d="M 1056 1014 L 1536 1014 L 1536 1536 L 1056 1536 Z M 1056 1014 "/>
</clipPath>
<clipPath id="clip50">
  <path d="M 768 0 C 1192.152344 0 1536 343.847656 1536 768 C 1536 1192.152344 1192.152344 1536 768 1536 C 343.847656 1536 0 1192.152344 0 768 C 0 343.847656 343.847656 0 768 0 Z M 768 0 "/>
</clipPath>
<clipPath id="clip51">
  <path d="M 676 739 L 1536 739 L 1536 1536 L 676 1536 Z M 676 739 "/>
</clipPath>
<clipPath id="clip52">
  <path d="M 768 0 C 1192.152344 0 1536 343.847656 1536 768 C 1536 1192.152344 1192.152344 1536 768 1536 C 343.847656 1536 0 1192.152344 0 768 C 0 343.847656 343.847656 0 768 0 Z M 768 0 "/>
</clipPath>
<clipPath id="clip53">
  <path d="M 676 808 L 1536 808 L 1536 1536 L 676 1536 Z M 676 808 "/>
</clipPath>
<clipPath id="clip54">
  <path d="M 768 0 C 1192.152344 0 1536 343.847656 1536 768 C 1536 1192.152344 1192.152344 1536 768 1536 C 343.847656 1536 0 1192.152344 0 768 C 0 343.847656 343.847656 0 768 0 Z M 768 0 "/>
</clipPath>
<clipPath id="clip55">
  <path d="M 690 821 L 1536 821 L 1536 1536 L 690 1536 Z M 690 821 "/>
</clipPath>
<clipPath id="clip56">
  <path d="M 768 0 C 1192.152344 0 1536 343.847656 1536 768 C 1536 1192.152344 1192.152344 1536 768 1536 C 343.847656 1536 0 1192.152344 0 768 C 0 343.847656 343.847656 0 768 0 Z M 768 0 "/>
</clipPath>
<clipPath id="clip57">
  <path d="M 819 953 L 1536 953 L 1536 1536 L 819 1536 Z M 819 953 "/>
</clipPath>
<clipPath id="clip58">
  <path d="M 768 0 C 1192.152344 0 1536 343.847656 1536 768 C 1536 1192.152344 1192.152344 1536 768 1536 C 343.847656 1536 0 1192.152344 0 768 C 0 343.847656 343.847656 0 768 0 Z M 768 0 "/>
</clipPath>
<clipPath id="clip59">
  <path d="M 827 970 L 1536 970 L 1536 1536 L 827 1536 Z M 827 970 "/>
</clipPath>
<clipPath id="clip60">
  <path d="M 768 0 C 1192.152344 0 1536 343.847656 1536 768 C 1536 1192.152344 1192.152344 1536 768 1536 C 343.847656 1536 0 1192.152344 0 768 C 0 343.847656 343.847656 0 768 0 Z M 768 0 "/>
</clipPath>
<clipPath id="clip61">
  <path d="M 827 989 L 1536 989 L 1536 1536 L 827 1536 Z M 827 989 "/>
</clipPath>
<clipPath id="clip62">
  <path d="M 768 0 C 1192.152344 0 1536 343.847656 1536 768 C 1536 1192.152344 1192.152344 1536 768 1536 C 343.847656 1536 0 1192.152344 0 768 C 0 343.847656 343.847656 0 768 0 Z M 768 0 "/>
</clipPath>
<clipPath id="clip63">
  <path d="M 814 989 L 1536 989 L 1536 1536 L 814 1536 Z M 814 989 "/>
</clipPath>
<clipPath id="clip64">
  <path d="M 768 0 C 1192.152344 0 1536 343.847656 1536 768 C 1536 1192.152344 1192.152344 1536 768 1536 C 343.847656 1536 0 1192.152344 0 768 C 0 343.847656 343.847656 0 768 0 Z M 768 0 "/>
</clipPath>
<clipPath id="clip65">
  <path d="M 796 1004 L 1536 1004 L 1536 1536 L 796 1536 Z M 796 1004 "/>
</clipPath>
<clipPath id="clip66">
  <path d="M 768 0 C 1192.152344 0 1536 343.847656 1536 768 C 1536 1192.152344 1192.152344 1536 768 1536 C 343.847656 1536 0 1192.152344 0 768 C 0 343.847656 343.847656 0 768 0 Z M 768 0 "/>
</clipPath>
<clipPath id="clip67">
  <path d="M 770 1010 L 1536 1010 L 1536 1536 L 770 1536 Z M 770 1010 "/>
</clipPath>
<clipPath id="clip68">
  <path d="M 768 0 C 1192.152344 0 1536 343.847656 1536 768 C 1536 1192.152344 1192.152344 1536 768 1536 C 343.847656 1536 0 1192.152344 0 768 C 0 343.847656 343.847656 0 768 0 Z M 768 0 "/>
</clipPath>
<clipPath id="clip69">
  <path d="M 760 1137 L 1536 1137 L 1536 1536 L 760 1536 Z M 760 1137 "/>
</clipPath>
<clipPath id="clip70">
  <path d="M 768 0 C 1192.152344 0 1536 343.847656 1536 768 C 1536 1192.152344 1192.152344 1536 768 1536 C 343.847656 1536 0 1192.152344 0 768 C 0 343.847656 343.847656 0 768 0 Z M 768 0 "/>
</clipPath>
<clipPath id="clip71">
  <path d="M 736 1160 L 1536 1160 L 1536 1536 L 736 1536 Z M 736 1160 "/>
</clipPath>
<clipPath id="clip72">
  <path d="M 768 0 C 1192.152344 0 1536 343.847656 1536 768 C 1536 1192.152344 1192.152344 1536 768 1536 C 343.847656 1536 0 1192.152344 0 768 C 0 343.847656 343.847656 0 768 0 Z M 768 0 "/>
</clipPath>
<clipPath id="clip73">
  <path d="M 588 1048 L 1454 1048 L 1454 1536 L 588 1536 Z M 588 1048 "/>
</clipPath>
<clipPath id="clip74">
  <path d="M 768 0 C 1192.152344 0 1536 343.847656 1536 768 C 1536 1192.152344 1192.152344 1536 768 1536 C 343.847656 1536 0 1192.152344 0 768 C 0 343.847656 343.847656 0 768 0 Z M 768 0 "/>
</clipPath>
<clipPath id="clip75">
  <path d="M 572 1048 L 1425 1048 L 1425 1536 L 572 1536 Z M 572 1048 "/>
</clipPath>
<clipPath id="clip76">
  <path d="M 768 0 C 1192.152344 0 1536 343.847656 1536 768 C 1536 1192.152344 1192.152344 1536 768 1536 C 343.847656 1536 0 1192.152344 0 768 C 0 343.847656 343.847656 0 768 0 Z M 768 0 "/>
</clipPath>
<clipPath id="clip77">
  <path d="M 588 1048 L 1441 1048 L 1441 1536 L 588 1536 Z M 588 1048 "/>
</clipPath>
<clipPath id="clip78">
  <path d="M 768 0 C 1192.152344 0 1536 343.847656 1536 768 C 1536 1192.152344 1192.152344 1536 768 1536 C 343.847656 1536 0 1192.152344 0 768 C 0 343.847656 343.847656 0 768 0 Z M 768 0 "/>
</clipPath>
<clipPath id="clip79">
  <path d="M 572 1048 L 1441 1048 L 1441 1536 L 572 1536 Z M 572 1048 "/>
</clipPath>
<clipPath id="clip80">
  <path d="M 768 0 C 1192.152344 0 1536 343.847656 1536 768 C 1536 1192.152344 1192.152344 1536 768 1536 C 343.847656 1536 0 1192.152344 0 768 C 0 343.847656 343.847656 0 768 0 Z M 768 0 "/>
</clipPath>
<clipPath id="clip81">
  <path d="M 635 1170 L 1536 1170 L 1536 1536 L 635 1536 Z M 635 1170 "/>
</clipPath>
<clipPath id="clip82">
  <path d="M 768 0 C 1192.152344 0 1536 343.847656 1536 768 C 1536 1192.152344 1192.152344 1536 768 1536 C 343.847656 1536 0 1192.152344 0 768 C 0 343.847656 343.847656 0 768 0 Z M 768 0 "/>
</clipPath>
<clipPath id="clip83">
  <path d="M 613 1162 L 1488 1162 L 1488 1536 L 613 1536 Z M 613 1162 "/>
</clipPath>
<clipPath id="clip84">
  <path d="M 768 0 C 1192.152344 0 1536 343.847656 1536 768 C 1536 1192.152344 1192.152344 1536 768 1536 C 343.847656 1536 0 1192.152344 0 768 C 0 343.847656 343.847656 0 768 0 Z M 768 0 "/>
</clipPath>
<clipPath id="clip85">
  <path d="M 563 1137 L 1425 1137 L 1425 1536 L 563 1536 Z M 563 1137 "/>
</clipPath>
<clipPath id="clip86">
  <path d="M 768 0 C 1192.152344 0 1536 343.847656 1536 768 C 1536 1192.152344 1192.152344 1536 768 1536 C 343.847656 1536 0 1192.152344 0 768 C 0 343.847656 343.847656 0 768 0 Z M 768 0 "/>
</clipPath>
<clipPath id="clip87">
  <path d="M 348 976 L 1200 976 L 1200 1536 L 348 1536 Z M 348 976 "/>
</clipPath>
<clipPath id="clip88">
  <path d="M 768 0 C 1192.152344 0 1536 343.847656 1536 768 C 1536 1192.152344 1192.152344 1536 768 1536 C 343.847656 1536 0 1192.152344 0 768 C 0 343.847656 343.847656 0 768 0 Z M 768 0 "/>
</clipPath>
<clipPath id="clip89">
  <path d="M 362 1004 L 1234 1004 L 1234 1536 L 362 1536 Z M 362 1004 "/>
</clipPath>
<clipPath id="clip90">
  <path d="M 768 0 C 1192.152344 0 1536 343.847656 1536 768 C 1536 1192.152344 1192.152344 1536 768 1536 C 343.847656 1536 0 1192.152344 0 768 C 0 343.847656 343.847656 0 768 0 Z M 768 0 "/>
</clipPath>
<clipPath id="clip91">
  <path d="M 411 1163 L 1286 1163 L 1286 1536 L 411 1536 Z M 411 1163 "/>
</clipPath>
<clipPath id="clip92">
  <path d="M 768 0 C 1192.152344 0 1536 343.847656 1536 768 C 1536 1192.152344 1192.152344 1536 768 1536 C 343.847656 1536 0 1192.152344 0 768 C 0 343.847656 343.847656 0 768 0 Z M 768 0 "/>
</clipPath>
<clipPath id="clip93">
  <path d="M 381 1010 L 1252 1010 L 1252 1536 L 381 1536 Z M 381 1010 "/>
</clipPath>
<clipPath id="clip94">
  <path d="M 768 0 C 1192.152344 0 1536 343.847656 1536 768 C 1536 1192.152344 1192.152344 1536 768 1536 C 343.847656 1536 0 1192.152344 0 768 C 0 343.847656 343.847656 0 768 0 Z M 768 0 "/>
</clipPath>
<clipPath id="clip95">
  <path d="M 359 1002 L 1215 1002 L 1215 1536 L 359 1536 Z M 359 1002 "/>
</clipPath>
<clipPath id="clip96">
  <path d="M 768 0 C 1192.152344 0 1536 343.847656 1536 768 C 1536 1192.152344 1192.152344 1536 768 1536 C 343.847656 1536 0 1192.152344 0 768 C 0 343.847656 343.847656 0 768 0 Z M 768 0 "/>
</clipPath>
<clipPath id="clip97">
  <path d="M 433 1170 L 1392 1170 L 1392 1536 L 433 1536 Z M 433 1170 "/>
</clipPath>
<clipPath id="clip98">
  <path d="M 768 0 C 1192.152344 0 1536 343.847656 1536 768 C 1536 1192.152344 1192.152344 1536 768 1536 C 343.847656 1536 0 1192.152344 0 768 C 0 343.847656 343.847656 0 768 0 Z M 768 0 "/>
</clipPath>
<clipPath id="clip99">
  <path d="M 539 1160 L 1416 1160 L 1416 1536 L 539 1536 Z M 539 1160 "/>
</clipPath>
<clipPath id="clip100">
  <path d="M 768 0 C 1192.152344 0 1536 343.847656 1536 768 C 1536 1192.152344 1192.152344 1536 768 1536 C 343.847656 1536 0 1192.152344 0 768 C 0 343.847656 343.847656 0 768 0 Z M 768 0 "/>
</clipPath>
<clipPath id="clip101">
  <path d="M 348 365 L 1188 365 L 1188 1171 L 348 1171 Z M 348 365 "/>
</clipPath>
<clipPath id="clip102">
  <path d="M 768 0 C 1192.152344 0 1536 343.847656 1536 768 C 1536 1192.152344 1192.152344 1536 768 1536 C 343.847656 1536 0 1192.152344 0 768 C 0 343.847656 343.847656 0 768 0 Z M 768 0 "/>
</clipPath>
</defs>
<g id="surface1">
<path style=" stroke:none;fill-rule:evenodd;fill:rgb(81.176471%,84.705882%,86.27451%);fill-opacity:1;" d="M 768 0 C 1192.152344 0 1536 343.847656 1536 768 C 1536 1192.152344 1192.152344 1536 768 1536 C 343.847656 1536 0 1192.152344 0 768 C 0 343.847656 343.847656 0 768 0 Z M 768 0 "/>
<g clip-path="url(#clip1)" clip-rule="nonzero">
<g clip-path="url(#clip2)" clip-rule="evenodd">
<path style=" stroke:none;fill-rule:evenodd;fill:rgb(56.470588%,64.313725%,68.235294%);fill-opacity:1;" d="M 841.65625 428.515625 L 1693.566406 1280.421875 L 1699.378906 1287.324219 L 1704.863281 1294.5 L 1710.007812 1301.953125 L 1714.800781 1309.671875 L 1719.226562 1317.644531 L 1723.265625 1325.851562 L 1726.921875 1334.296875 L 1730.167969 1342.949219 L 1733.003906 1351.824219 L 1735.402344 1360.890625 L 1737.359375 1370.136719 L 1738.859375 1379.574219 L 1739.902344 1389.164062 L 1740.140625 1392.511719 L 1740.328125 1395.847656 L 1740.457031 1399.175781 L 1740.523438 1402.492188 L 1740.539062 1405.800781 L 1740.496094 1409.101562 L 1740.390625 1412.378906 L 1740.226562 1415.648438 L 1740.007812 1418.910156 L 1739.738281 1422.148438 L 1739.40625 1425.382812 L 1739.023438 1428.59375 L 1738.582031 1431.796875 L 1738.09375 1434.976562 L 1737.546875 1438.140625 L 1736.949219 1441.289062 L 1736.296875 1444.425781 L 1735.589844 1447.546875 L 1734.832031 1450.640625 L 1734.03125 1453.71875 L 1733.167969 1456.777344 L 1732.261719 1459.816406 L 1731.300781 1462.828125 L 1730.289062 1465.828125 L 1729.230469 1468.800781 L 1728.121094 1471.753906 L 1726.964844 1474.6875 L 1725.765625 1477.597656 L 1724.511719 1480.476562 L 1723.214844 1483.335938 L 1721.871094 1486.171875 L 1720.484375 1488.984375 L 868.566406 637.070312 L 869.960938 634.261719 L 871.304688 631.425781 L 872.601562 628.566406 L 873.855469 625.683594 L 875.054688 622.773438 L 876.210938 619.84375 L 877.320312 616.890625 L 878.378906 613.917969 L 879.390625 610.921875 L 880.351562 607.902344 L 881.257812 604.863281 L 882.113281 601.804688 L 882.921875 598.726562 L 883.679688 595.628906 L 884.386719 592.515625 L 885.039062 589.382812 L 885.636719 586.230469 L 886.183594 583.066406 L 886.671875 579.882812 L 887.113281 576.683594 L 887.496094 573.46875 L 887.828125 570.238281 L 888.097656 566.996094 L 888.316406 563.738281 L 888.480469 560.46875 L 888.585938 557.183594 L 888.628906 553.890625 L 888.613281 550.585938 L 888.546875 547.265625 L 888.421875 543.9375 L 888.234375 540.601562 L 887.984375 537.253906 L 886.949219 527.660156 L 885.449219 518.226562 L 883.492188 508.976562 L 881.09375 499.910156 L 878.257812 491.039062 L 875.011719 482.382812 L 871.359375 473.941406 L 867.308594 465.730469 L 862.890625 457.761719 L 858.097656 450.046875 L 852.953125 442.589844 L 847.46875 435.410156 Z M 841.65625 428.515625 "/>
</g>
</g>
<g clip-path="url(#clip3)" clip-rule="nonzero">
<g clip-path="url(#clip4)" clip-rule="evenodd">
<path style=" stroke:none;fill-rule:evenodd;fill:rgb(56.470588%,64.313725%,68.235294%);fill-opacity:1;" d="M 1159.214844 883.523438 L 2011.132812 1735.433594 L 2011.09375 1735.46875 L 1159.183594 883.558594 Z M 1159.214844 883.523438 "/>
</g>
</g>
<g clip-path="url(#clip5)" clip-rule="nonzero">
<g clip-path="url(#clip6)" clip-rule="evenodd">
<path style=" stroke:none;fill-rule:evenodd;fill:rgb(56.470588%,64.313725%,68.235294%);fill-opacity:1;" d="M 1176.039062 898.273438 L 2027.949219 1750.183594 L 2028.691406 1751.003906 L 2029.410156 1751.84375 L 2030.109375 1752.691406 L 2030.78125 1753.558594 L 2031.433594 1754.445312 L 2032.074219 1755.34375 L 2032.679688 1756.265625 L 2033.273438 1757.199219 L 2033.84375 1758.148438 L 2034.382812 1759.109375 L 2034.898438 1760.09375 L 1182.988281 908.183594 L 1182.472656 907.199219 L 1181.925781 906.238281 L 1181.363281 905.289062 L 1180.769531 904.359375 L 1180.164062 903.433594 L 1179.523438 902.535156 L 1178.871094 901.648438 L 1178.199219 900.78125 L 1177.492188 899.933594 L 1176.78125 899.09375 Z M 1176.039062 898.273438 "/>
</g>
</g>
<g clip-path="url(#clip7)" clip-rule="nonzero">
<g clip-path="url(#clip8)" clip-rule="evenodd">
<path style=" stroke:none;fill-rule:evenodd;fill:rgb(56.470588%,64.313725%,68.235294%);fill-opacity:1;" d="M 1182.988281 908.183594 L 2034.898438 1760.09375 L 2035.402344 1761.089844 L 2035.867188 1762.101562 L 2036.316406 1763.121094 L 2036.738281 1764.15625 L 2037.128906 1765.199219 L 2037.503906 1766.25 L 2037.839844 1767.308594 L 2038.15625 1768.371094 L 2038.449219 1769.453125 L 2038.710938 1770.53125 L 2038.949219 1771.621094 L 2039.160156 1772.714844 L 2039.347656 1773.808594 L 2039.503906 1774.914062 L 2039.640625 1776.023438 L 2039.746094 1777.132812 L 1187.835938 925.222656 L 1187.730469 924.113281 L 1187.59375 923.003906 L 1187.4375 921.898438 L 1187.25 920.796875 L 1187.039062 919.710938 L 1186.800781 918.621094 L 1186.539062 917.535156 L 1186.246094 916.460938 L 1185.929688 915.398438 L 1185.585938 914.332031 L 1185.21875 913.28125 L 1184.828125 912.238281 L 1184.40625 911.210938 L 1183.957031 910.191406 L 1183.484375 909.179688 Z M 1182.988281 908.183594 "/>
</g>
</g>
<g clip-path="url(#clip9)" clip-rule="nonzero">
<g clip-path="url(#clip10)" clip-rule="evenodd">
<path style=" stroke:none;fill-rule:evenodd;fill:rgb(56.470588%,64.313725%,68.235294%);fill-opacity:1;" d="M 1187.835938 925.222656 L 2039.746094 1777.132812 L 2039.761719 1777.304688 L 1187.851562 925.394531 Z M 1187.835938 925.222656 "/>
</g>
</g>
<g clip-path="url(#clip11)" clip-rule="nonzero">
<g clip-path="url(#clip12)" clip-rule="evenodd">
<path style=" stroke:none;fill-rule:evenodd;fill:rgb(56.470588%,64.313725%,68.235294%);fill-opacity:1;" d="M 1187.851562 925.394531 L 2039.761719 1777.304688 L 2039.835938 1778.414062 L 2039.886719 1779.53125 L 2039.910156 1780.648438 L 2039.902344 1781.761719 L 2039.878906 1782.878906 L 2039.820312 1783.988281 L 2039.738281 1785.097656 L 2039.625 1786.207031 L 2039.488281 1787.316406 L 2039.324219 1788.421875 L 2039.136719 1789.515625 L 2038.921875 1790.609375 L 2038.671875 1791.699219 L 2038.402344 1792.777344 L 2038.09375 1793.851562 L 2037.773438 1794.921875 L 1185.863281 943.003906 L 1186.183594 941.941406 L 1186.484375 940.867188 L 1186.761719 939.789062 L 1187.003906 938.699219 L 1187.226562 937.605469 L 1187.414062 936.503906 L 1187.578125 935.398438 L 1187.714844 934.296875 L 1187.828125 933.1875 L 1187.910156 932.078125 L 1187.960938 930.96875 L 1187.992188 929.851562 L 1188 928.734375 L 1187.976562 927.621094 L 1187.925781 926.503906 Z M 1187.851562 925.394531 "/>
</g>
</g>
<g clip-path="url(#clip13)" clip-rule="nonzero">
<g clip-path="url(#clip14)" clip-rule="evenodd">
<path style=" stroke:none;fill-rule:evenodd;fill:rgb(56.470588%,64.313725%,68.235294%);fill-opacity:1;" d="M 1185.863281 943.003906 L 2037.773438 1794.921875 L 2037.421875 1795.972656 L 2037.039062 1797.007812 L 2036.640625 1798.042969 L 2036.210938 1799.054688 L 2035.753906 1800.058594 L 2035.273438 1801.058594 L 2034.773438 1802.039062 L 2034.246094 1803.007812 L 2033.699219 1803.960938 L 2033.128906 1804.90625 L 2032.53125 1805.828125 L 2031.914062 1806.742188 L 2031.269531 1807.640625 L 2030.609375 1808.527344 L 2029.921875 1809.398438 L 2029.214844 1810.253906 L 1177.304688 958.335938 L 1178.011719 957.488281 L 1178.699219 956.617188 L 1179.359375 955.734375 L 1180.003906 954.832031 L 1180.621094 953.917969 L 1181.21875 952.988281 L 1181.789062 952.050781 L 1182.335938 951.089844 L 1182.863281 950.121094 L 1183.363281 949.148438 L 1183.84375 948.148438 L 1184.296875 947.144531 L 1184.722656 946.125 L 1185.128906 945.097656 L 1185.511719 944.0625 Z M 1185.863281 943.003906 "/>
</g>
</g>
<g clip-path="url(#clip15)" clip-rule="nonzero">
<g clip-path="url(#clip16)" clip-rule="evenodd">
<path style=" stroke:none;fill-rule:evenodd;fill:rgb(56.470588%,64.313725%,68.235294%);fill-opacity:1;" d="M 1177.304688 958.335938 L 2029.214844 1810.253906 L 2027.84375 1811.871094 L 1175.933594 959.953125 Z M 1177.304688 958.335938 "/>
</g>
</g>
<g clip-path="url(#clip17)" clip-rule="nonzero">
<g clip-path="url(#clip18)" clip-rule="evenodd">
<path style=" stroke:none;fill-rule:evenodd;fill:rgb(56.470588%,64.313725%,68.235294%);fill-opacity:1;" d="M 1175.933594 959.953125 L 2027.84375 1811.871094 L 2027.113281 1812.636719 L 2026.363281 1813.378906 L 2025.609375 1814.109375 L 2024.828125 1814.820312 L 2024.039062 1815.503906 L 2023.230469 1816.171875 L 2022.414062 1816.824219 L 2021.578125 1817.453125 L 2020.734375 1818.058594 L 2019.871094 1818.644531 L 2019 1819.214844 L 2018.113281 1819.761719 L 2017.222656 1820.289062 L 2016.308594 1820.789062 L 2015.390625 1821.277344 L 2014.460938 1821.734375 L 2013.515625 1822.175781 L 2012.566406 1822.597656 L 2011.605469 1822.996094 L 2010.636719 1823.371094 L 2009.65625 1823.722656 L 2008.664062 1824.050781 L 2007.667969 1824.359375 L 2006.664062 1824.644531 L 2005.648438 1824.914062 L 2004.628906 1825.15625 L 2003.601562 1825.371094 L 2002.566406 1825.558594 L 2001.523438 1825.734375 L 2000.476562 1825.882812 L 1999.425781 1826.003906 L 1998.367188 1826.101562 L 1146.457031 974.191406 L 1147.515625 974.09375 L 1148.566406 973.972656 L 1149.613281 973.824219 L 1150.65625 973.648438 L 1151.691406 973.453125 L 1152.71875 973.238281 L 1153.738281 972.996094 L 1154.753906 972.734375 L 1155.757812 972.449219 L 1156.753906 972.140625 L 1157.746094 971.8125 L 1158.726562 971.460938 L 1159.695312 971.085938 L 1160.65625 970.6875 L 1161.609375 970.265625 L 1162.550781 969.824219 L 1163.484375 969.359375 L 1164.398438 968.878906 L 1165.304688 968.378906 L 1166.203125 967.851562 L 1167.089844 967.304688 L 1167.960938 966.734375 L 1168.824219 966.148438 L 1169.671875 965.535156 L 1170.503906 964.914062 L 1171.320312 964.261719 L 1172.128906 963.59375 L 1172.917969 962.902344 L 1173.699219 962.199219 L 1174.453125 961.46875 L 1175.203125 960.71875 Z M 1175.933594 959.953125 "/>
</g>
</g>
<g clip-path="url(#clip19)" clip-rule="nonzero">
<g clip-path="url(#clip20)" clip-rule="evenodd">
<path style=" stroke:none;fill-rule:evenodd;fill:rgb(56.470588%,64.313725%,68.235294%);fill-opacity:1;" d="M 1146.457031 974.191406 L 1998.367188 1826.101562 L 1996.964844 1826.199219 L 1995.5625 1826.25 L 1994.167969 1826.257812 L 1992.765625 1826.21875 L 1991.371094 1826.144531 L 1989.976562 1826.023438 L 1988.578125 1825.859375 L 1987.199219 1825.65625 L 1985.820312 1825.410156 L 1984.449219 1825.117188 L 1983.089844 1824.789062 L 1981.738281 1824.421875 L 1980.40625 1824 L 1979.078125 1823.550781 L 1977.765625 1823.046875 L 1976.476562 1822.507812 L 1124.566406 970.597656 L 1125.855469 971.136719 L 1127.167969 971.632812 L 1128.496094 972.089844 L 1129.828125 972.503906 L 1131.179688 972.878906 L 1132.539062 973.207031 L 1133.910156 973.5 L 1135.28125 973.746094 L 1136.671875 973.949219 L 1138.058594 974.113281 L 1139.453125 974.234375 L 1140.855469 974.308594 L 1142.25 974.347656 L 1143.652344 974.332031 L 1145.054688 974.289062 Z M 1146.457031 974.191406 "/>
</g>
</g>
<g clip-path="url(#clip21)" clip-rule="nonzero">
<g clip-path="url(#clip22)" clip-rule="evenodd">
<path style=" stroke:none;fill-rule:evenodd;fill:rgb(56.470588%,64.313725%,68.235294%);fill-opacity:1;" d="M 1124.566406 970.597656 L 1976.476562 1822.507812 L 1965.066406 1817.550781 L 1113.15625 965.640625 Z M 1124.566406 970.597656 "/>
</g>
</g>
<g clip-path="url(#clip23)" clip-rule="nonzero">
<g clip-path="url(#clip24)" clip-rule="evenodd">
<path style=" stroke:none;fill-rule:evenodd;fill:rgb(56.470588%,64.313725%,68.235294%);fill-opacity:1;" d="M 1045.058594 905.640625 L 1896.96875 1757.550781 L 1864.859375 1730.25 L 1012.949219 878.339844 Z M 1045.058594 905.640625 "/>
</g>
</g>
<g clip-path="url(#clip25)" clip-rule="nonzero">
<g clip-path="url(#clip26)" clip-rule="evenodd">
<path style=" stroke:none;fill-rule:evenodd;fill:rgb(56.470588%,64.313725%,68.235294%);fill-opacity:1;" d="M 943.710938 819.726562 L 1795.628906 1671.644531 L 1661.25 1557.710938 L 809.339844 705.800781 Z M 943.710938 819.726562 "/>
</g>
</g>
<g clip-path="url(#clip27)" clip-rule="nonzero">
<g clip-path="url(#clip28)" clip-rule="evenodd">
<path style=" stroke:none;fill-rule:evenodd;fill:rgb(56.470588%,64.313725%,68.235294%);fill-opacity:1;" d="M 809.339844 705.800781 L 1661.25 1557.710938 L 1658.753906 1559.445312 L 1656.226562 1561.148438 L 1653.667969 1562.804688 L 1651.085938 1564.425781 L 1648.46875 1566 L 1645.828125 1567.539062 L 1643.152344 1569.03125 L 1640.460938 1570.484375 L 1637.730469 1571.894531 L 1634.976562 1573.261719 L 1632.195312 1574.578125 L 1629.390625 1575.863281 L 1626.5625 1577.09375 L 1623.703125 1578.285156 L 1620.824219 1579.425781 L 1617.914062 1580.519531 L 1614.988281 1581.570312 L 1612.035156 1582.574219 L 1609.058594 1583.535156 L 1606.058594 1584.441406 L 1603.035156 1585.296875 L 1599.988281 1586.113281 L 1596.929688 1586.871094 L 1593.839844 1587.585938 L 1590.734375 1588.246094 L 1587.609375 1588.851562 L 1584.457031 1589.414062 L 1581.292969 1589.917969 L 1578.105469 1590.375 L 1574.902344 1590.78125 L 1571.675781 1591.125 L 1568.4375 1591.417969 L 1567.597656 1591.484375 L 1566.75 1591.550781 L 1565.910156 1591.613281 L 1565.070312 1591.664062 L 1564.230469 1591.71875 L 1563.390625 1591.769531 L 1562.550781 1591.816406 L 1561.71875 1591.851562 L 709.804688 739.941406 L 710.644531 739.902344 L 711.480469 739.855469 L 712.320312 739.808594 L 714 739.699219 L 714.84375 739.640625 L 715.683594 739.574219 L 716.527344 739.507812 L 719.765625 739.214844 L 722.992188 738.867188 L 726.195312 738.460938 L 729.378906 738.007812 L 732.546875 737.503906 L 735.695312 736.941406 L 738.824219 736.332031 L 741.929688 735.671875 L 745.015625 734.960938 L 748.082031 734.199219 L 751.125 733.386719 L 754.148438 732.527344 L 757.148438 731.621094 L 760.125 730.664062 L 763.074219 729.660156 L 766.003906 728.609375 L 768.914062 727.511719 L 771.796875 726.371094 L 774.652344 725.183594 L 777.480469 723.949219 L 780.285156 722.667969 L 783.066406 721.347656 L 785.820312 719.980469 L 788.542969 718.570312 L 791.242188 717.121094 L 793.914062 715.625 L 796.558594 714.089844 L 799.175781 712.511719 L 801.757812 710.894531 L 804.316406 709.234375 L 806.84375 707.539062 Z M 809.339844 705.800781 "/>
</g>
</g>
<g clip-path="url(#clip29)" clip-rule="nonzero">
<g clip-path="url(#clip30)" clip-rule="evenodd">
<path style=" stroke:none;fill-rule:evenodd;fill:rgb(56.470588%,64.313725%,68.235294%);fill-opacity:1;" d="M 954.90625 936.425781 L 1806.816406 1788.335938 L 1805.761719 1788.40625 L 1804.703125 1788.421875 L 1803.652344 1788.382812 L 1802.609375 1788.308594 L 1801.566406 1788.179688 L 1800.546875 1788.007812 L 1799.527344 1787.789062 L 1798.523438 1787.527344 L 1797.53125 1787.21875 L 1796.558594 1786.875 L 1795.597656 1786.476562 L 1794.660156 1786.035156 L 1793.738281 1785.554688 L 1792.828125 1785.03125 L 1791.945312 1784.460938 L 1791.089844 1783.851562 L 939.171875 931.941406 L 940.035156 932.550781 L 940.921875 933.121094 L 941.820312 933.644531 L 942.75 934.125 L 943.6875 934.566406 L 944.648438 934.957031 L 945.621094 935.308594 L 946.613281 935.617188 L 947.617188 935.878906 L 948.628906 936.097656 L 949.65625 936.269531 L 950.691406 936.398438 L 951.742188 936.472656 L 952.792969 936.503906 L 953.851562 936.488281 Z M 954.90625 936.425781 "/>
</g>
</g>
<g clip-path="url(#clip31)" clip-rule="nonzero">
<g clip-path="url(#clip32)" clip-rule="evenodd">
<path style=" stroke:none;fill-rule:evenodd;fill:rgb(56.470588%,64.313725%,68.235294%);fill-opacity:1;" d="M 1010.730469 992.601562 L 1862.640625 1844.511719 L 1857.390625 1840.050781 L 1005.480469 988.140625 Z M 1010.730469 992.601562 "/>
</g>
</g>
<g clip-path="url(#clip33)" clip-rule="nonzero">
<g clip-path="url(#clip34)" clip-rule="evenodd">
<path style=" stroke:none;fill-rule:evenodd;fill:rgb(56.470588%,64.313725%,68.235294%);fill-opacity:1;" d="M 1005.480469 988.140625 L 1857.390625 1840.050781 L 1856.527344 1839.285156 L 1855.71875 1838.484375 L 1003.808594 986.566406 L 1004.617188 987.375 Z M 1005.480469 988.140625 "/>
</g>
</g>
<g clip-path="url(#clip35)" clip-rule="nonzero">
<g clip-path="url(#clip36)" clip-rule="evenodd">
<path style=" stroke:none;fill-rule:evenodd;fill:rgb(56.470588%,64.313725%,68.235294%);fill-opacity:1;" d="M 1012.949219 878.339844 L 1864.859375 1730.25 L 1821.621094 1781.316406 L 969.710938 929.40625 Z M 1012.949219 878.339844 "/>
</g>
</g>
<g clip-path="url(#clip37)" clip-rule="nonzero">
<g clip-path="url(#clip38)" clip-rule="evenodd">
<path style=" stroke:none;fill-rule:evenodd;fill:rgb(56.470588%,64.313725%,68.235294%);fill-opacity:1;" d="M 969.710938 929.40625 L 1821.621094 1781.316406 L 1820.871094 1782.058594 L 1820.101562 1782.765625 L 1819.289062 1783.433594 L 1818.457031 1784.0625 L 1817.59375 1784.65625 L 1816.71875 1785.203125 L 1815.808594 1785.710938 L 1814.878906 1786.175781 L 1813.933594 1786.605469 L 1812.96875 1786.980469 L 1811.976562 1787.324219 L 1810.972656 1787.617188 L 1809.960938 1787.863281 L 1808.925781 1788.066406 L 1807.875 1788.226562 L 1806.816406 1788.335938 L 954.90625 936.425781 L 955.964844 936.316406 L 957.015625 936.15625 L 958.050781 935.953125 L 959.0625 935.707031 L 960.066406 935.40625 L 961.058594 935.070312 L 962.023438 934.6875 L 962.96875 934.265625 L 963.898438 933.800781 L 964.808594 933.292969 L 965.683594 932.746094 L 966.546875 932.152344 L 967.378906 931.523438 L 968.191406 930.855469 L 968.960938 930.148438 Z M 969.710938 929.40625 "/>
</g>
</g>
<g clip-path="url(#clip39)" clip-rule="nonzero">
<g clip-path="url(#clip40)" clip-rule="evenodd">
<path style=" stroke:none;fill-rule:evenodd;fill:rgb(56.470588%,64.313725%,68.235294%);fill-opacity:1;" d="M 1056.210938 1022.289062 L 1908.128906 1874.199219 L 1906.964844 1874.265625 L 1905.816406 1874.273438 L 1904.671875 1874.226562 L 1903.539062 1874.128906 L 1902.414062 1873.972656 L 1901.296875 1873.753906 L 1900.191406 1873.492188 L 1899.113281 1873.171875 L 1898.039062 1872.800781 L 1896.988281 1872.375 L 1895.960938 1871.894531 L 1894.957031 1871.371094 L 1893.976562 1870.792969 L 1893.015625 1870.164062 L 1892.085938 1869.488281 L 1891.183594 1868.761719 L 1039.265625 1016.84375 L 1040.175781 1017.570312 L 1041.105469 1018.253906 L 1042.066406 1018.882812 L 1043.046875 1019.460938 L 1044.050781 1019.984375 L 1045.078125 1020.464844 L 1046.128906 1020.886719 L 1047.195312 1021.261719 L 1048.28125 1021.582031 L 1049.386719 1021.84375 L 1050.496094 1022.054688 L 1051.628906 1022.210938 L 1052.761719 1022.316406 L 1053.90625 1022.363281 L 1055.054688 1022.355469 Z M 1056.210938 1022.289062 "/>
</g>
</g>
<g clip-path="url(#clip41)" clip-rule="nonzero">
<g clip-path="url(#clip42)" clip-rule="evenodd">
<path style=" stroke:none;fill-rule:evenodd;fill:rgb(56.470588%,64.313725%,68.235294%);fill-opacity:1;" d="M 1039.265625 1016.84375 L 1891.183594 1868.761719 L 1862.640625 1844.566406 L 1010.730469 992.65625 Z M 1039.265625 1016.84375 "/>
</g>
</g>
<g clip-path="url(#clip43)" clip-rule="nonzero">
<g clip-path="url(#clip44)" clip-rule="evenodd">
<path style=" stroke:none;fill-rule:evenodd;fill:rgb(56.470588%,64.313725%,68.235294%);fill-opacity:1;" d="M 939.171875 931.941406 L 1791.089844 1783.851562 L 1756.191406 1754.28125 L 904.28125 902.371094 Z M 939.171875 931.941406 "/>
<path style=" stroke:none;fill-rule:evenodd;fill:rgb(56.470588%,64.313725%,68.235294%);fill-opacity:1;" d="M 904.28125 902.371094 L 1756.191406 1754.28125 L 1756.132812 1754.234375 L 904.222656 902.316406 Z M 904.28125 902.371094 "/>
</g>
</g>
<g clip-path="url(#clip45)" clip-rule="nonzero">
<g clip-path="url(#clip46)" clip-rule="evenodd">
<path style=" stroke:none;fill-rule:evenodd;fill:rgb(56.470588%,64.313725%,68.235294%);fill-opacity:1;" d="M 904.222656 902.316406 L 1756.132812 1754.234375 L 1755.269531 1753.460938 L 1754.445312 1752.652344 L 902.535156 900.742188 L 903.359375 901.546875 Z M 904.222656 902.316406 "/>
</g>
</g>
<g clip-path="url(#clip47)" clip-rule="nonzero">
<g clip-path="url(#clip48)" clip-rule="evenodd">
<path style=" stroke:none;fill-rule:evenodd;fill:rgb(56.470588%,64.313725%,68.235294%);fill-opacity:1;" d="M 1113.15625 965.640625 L 1965.066406 1817.550781 L 1923.945312 1866.058594 L 1072.035156 1014.140625 Z M 1113.15625 965.640625 "/>
</g>
</g>
<g clip-path="url(#clip49)" clip-rule="nonzero">
<g clip-path="url(#clip50)" clip-rule="evenodd">
<path style=" stroke:none;fill-rule:evenodd;fill:rgb(56.470588%,64.313725%,68.235294%);fill-opacity:1;" d="M 1072.035156 1014.140625 L 1923.945312 1866.058594 L 1923.179688 1866.921875 L 1922.371094 1867.746094 L 1921.53125 1868.519531 L 1920.652344 1869.253906 L 1919.746094 1869.9375 L 1918.808594 1870.574219 L 1917.839844 1871.167969 L 1916.851562 1871.707031 L 1915.828125 1872.203125 L 1914.789062 1872.644531 L 1913.722656 1873.035156 L 1912.640625 1873.371094 L 1911.539062 1873.664062 L 1910.414062 1873.898438 L 1909.273438 1874.078125 L 1908.128906 1874.199219 L 1056.210938 1022.289062 L 1057.363281 1022.160156 L 1058.503906 1021.980469 L 1059.621094 1021.746094 L 1060.734375 1021.460938 L 1061.8125 1021.125 L 1062.878906 1020.734375 L 1063.921875 1020.292969 L 1064.941406 1019.796875 L 1065.929688 1019.257812 L 1066.898438 1018.664062 L 1067.835938 1018.027344 L 1068.742188 1017.34375 L 1069.621094 1016.609375 L 1070.460938 1015.828125 L 1071.269531 1015.011719 Z M 1072.035156 1014.140625 "/>
</g>
</g>
<g clip-path="url(#clip51)" clip-rule="nonzero">
<g clip-path="url(#clip52)" clip-rule="evenodd">
<path style=" stroke:none;fill-rule:evenodd;fill:rgb(56.470588%,64.313725%,68.235294%);fill-opacity:1;" d="M 709.804688 739.941406 L 1561.71875 1591.851562 L 1560.886719 1594.3125 L 1560.039062 1596.757812 L 1559.175781 1599.1875 L 1558.296875 1601.601562 L 1557.40625 1603.996094 L 1556.496094 1606.378906 L 1555.566406 1608.742188 L 1554.628906 1611.089844 L 1553.675781 1613.414062 L 1552.710938 1615.71875 L 1551.734375 1618.003906 L 1550.738281 1620.269531 L 1549.734375 1622.519531 L 1548.71875 1624.738281 L 1547.683594 1626.9375 L 1546.648438 1629.113281 L 1545.59375 1631.257812 L 1544.535156 1633.378906 L 1543.460938 1635.480469 L 1542.382812 1637.550781 L 1541.289062 1639.597656 L 1540.183594 1641.609375 L 1539.082031 1643.59375 L 1537.964844 1645.550781 L 1536.839844 1647.480469 L 1535.707031 1649.371094 L 1534.566406 1651.238281 L 1533.421875 1653.066406 L 1532.265625 1654.859375 L 1531.109375 1656.621094 L 1529.949219 1658.347656 L 1528.777344 1660.042969 L 676.867188 808.132812 L 678.035156 806.4375 L 679.199219 804.710938 L 680.355469 802.949219 L 681.507812 801.148438 L 682.65625 799.320312 L 683.796875 797.460938 L 684.925781 795.5625 L 686.050781 793.640625 L 687.167969 791.683594 L 688.277344 789.699219 L 689.378906 787.6875 L 690.46875 785.640625 L 691.550781 783.570312 L 692.625 781.46875 L 693.683594 779.347656 L 694.734375 777.195312 L 695.777344 775.027344 L 696.804688 772.828125 L 697.824219 770.601562 L 698.828125 768.359375 L 699.820312 766.09375 L 700.800781 763.808594 L 701.765625 761.503906 L 702.722656 759.171875 L 703.660156 756.832031 L 704.582031 754.46875 L 705.492188 752.085938 L 706.386719 749.6875 L 707.265625 747.273438 L 708.128906 744.84375 L 708.976562 742.398438 Z M 709.804688 739.941406 "/>
</g>
</g>
<g clip-path="url(#clip53)" clip-rule="nonzero">
<g clip-path="url(#clip54)" clip-rule="evenodd">
<path style=" stroke:none;fill-rule:evenodd;fill:rgb(56.470588%,64.313725%,68.235294%);fill-opacity:1;" d="M 676.867188 808.132812 L 1528.777344 1660.042969 L 1541.96875 1673.414062 L 690.058594 821.503906 Z M 676.867188 808.132812 "/>
</g>
</g>
<g clip-path="url(#clip55)" clip-rule="nonzero">
<g clip-path="url(#clip56)" clip-rule="evenodd">
<path style=" stroke:none;fill-rule:evenodd;fill:rgb(56.470588%,64.313725%,68.235294%);fill-opacity:1;" d="M 690.058594 821.503906 L 1541.96875 1673.414062 L 1671.839844 1805.113281 L 819.929688 953.203125 Z M 690.058594 821.503906 "/>
</g>
</g>
<g clip-path="url(#clip57)" clip-rule="nonzero">
<g clip-path="url(#clip58)" clip-rule="evenodd">
<path style=" stroke:none;fill-rule:evenodd;fill:rgb(56.470588%,64.313725%,68.235294%);fill-opacity:1;" d="M 819.929688 953.203125 L 1671.839844 1805.113281 L 1672.703125 1806.023438 L 1673.535156 1806.953125 L 1674.316406 1807.914062 L 1675.066406 1808.886719 L 1675.769531 1809.890625 L 1676.4375 1810.914062 L 1677.066406 1811.953125 L 1677.652344 1813.019531 L 1678.199219 1814.101562 L 1678.703125 1815.195312 L 1679.167969 1816.304688 L 1679.585938 1817.429688 L 1679.96875 1818.5625 L 1680.308594 1819.710938 L 1680.609375 1820.863281 L 1680.863281 1822.027344 L 828.953125 970.117188 L 828.699219 968.953125 L 828.398438 967.800781 L 828.058594 966.652344 L 827.675781 965.511719 L 827.257812 964.394531 L 826.792969 963.285156 L 826.289062 962.191406 L 825.742188 961.109375 L 825.15625 960.046875 L 824.527344 959.003906 L 823.859375 957.984375 L 823.15625 956.976562 L 822.40625 955.996094 L 821.617188 955.042969 L 820.792969 954.113281 Z M 819.929688 953.203125 "/>
</g>
</g>
<g clip-path="url(#clip59)" clip-rule="nonzero">
<g clip-path="url(#clip60)" clip-rule="evenodd">
<path style=" stroke:none;fill-rule:evenodd;fill:rgb(56.470588%,64.313725%,68.235294%);fill-opacity:1;" d="M 828.953125 970.117188 L 1680.863281 1822.027344 L 1681.074219 1823.210938 L 1681.246094 1824.398438 L 1681.371094 1825.589844 L 1681.453125 1826.796875 L 1681.492188 1828.003906 L 1681.484375 1829.210938 L 1681.441406 1830.425781 L 1681.34375 1831.636719 L 1681.207031 1832.851562 L 1681.027344 1834.066406 L 1680.796875 1835.273438 L 1680.523438 1836.480469 L 1680.203125 1837.679688 L 1679.84375 1838.871094 L 1679.429688 1840.058594 L 1678.972656 1841.226562 L 827.0625 989.316406 L 827.519531 988.140625 L 827.933594 986.960938 L 828.292969 985.769531 L 828.613281 984.570312 L 828.886719 983.363281 L 829.117188 982.15625 L 829.296875 980.941406 L 829.433594 979.726562 L 829.53125 978.511719 L 829.574219 977.300781 L 829.582031 976.085938 L 829.546875 974.878906 L 829.460938 973.679688 L 829.335938 972.488281 L 829.164062 971.296875 Z M 828.953125 970.117188 "/>
</g>
</g>
<g clip-path="url(#clip61)" clip-rule="nonzero">
<g clip-path="url(#clip62)" clip-rule="evenodd">
<path style=" stroke:none;fill-rule:evenodd;fill:rgb(56.470588%,64.313725%,68.235294%);fill-opacity:1;" d="M 827.0625 989.316406 L 1678.972656 1841.226562 L 1678.949219 1841.21875 L 827.039062 989.308594 Z M 827.0625 989.316406 "/>
</g>
</g>
<g clip-path="url(#clip63)" clip-rule="nonzero">
<g clip-path="url(#clip64)" clip-rule="evenodd">
<path style=" stroke:none;fill-rule:evenodd;fill:rgb(56.470588%,64.313725%,68.235294%);fill-opacity:1;" d="M 827.039062 989.308594 L 1678.949219 1841.21875 L 1678.449219 1842.375 L 1677.914062 1843.5 L 1677.328125 1844.601562 L 1676.714844 1845.675781 L 1676.0625 1846.726562 L 1675.371094 1847.746094 L 1674.644531 1848.734375 L 1673.878906 1849.695312 L 1673.09375 1850.625 L 1672.265625 1851.515625 L 1671.414062 1852.386719 L 1670.527344 1853.21875 L 1669.621094 1854.023438 L 1668.675781 1854.78125 L 1667.714844 1855.515625 L 1666.726562 1856.203125 L 814.816406 1004.296875 L 815.804688 1003.597656 L 816.765625 1002.871094 L 817.710938 1002.105469 L 818.617188 1001.308594 L 819.503906 1000.476562 L 820.359375 999.609375 L 821.183594 998.707031 L 821.96875 997.777344 L 822.734375 996.816406 L 823.453125 995.828125 L 824.152344 994.808594 L 824.804688 993.765625 L 825.421875 992.683594 L 825.996094 991.589844 L 826.539062 990.457031 Z M 827.039062 989.308594 "/>
</g>
</g>
<g clip-path="url(#clip65)" clip-rule="nonzero">
<g clip-path="url(#clip66)" clip-rule="evenodd">
<path style=" stroke:none;fill-rule:evenodd;fill:rgb(56.470588%,64.313725%,68.235294%);fill-opacity:1;" d="M 814.816406 1004.296875 L 1666.726562 1856.203125 L 1665.699219 1856.863281 L 1664.65625 1857.496094 L 1663.589844 1858.078125 L 1662.503906 1858.628906 L 1661.390625 1859.136719 L 1660.265625 1859.601562 L 1659.128906 1860.039062 L 1657.972656 1860.421875 L 1656.796875 1860.765625 L 1655.609375 1861.066406 L 1654.410156 1861.320312 L 1653.195312 1861.539062 L 1651.972656 1861.703125 L 1650.734375 1861.824219 L 1649.496094 1861.898438 L 1648.246094 1861.921875 L 796.335938 1010.011719 L 797.585938 1009.980469 L 798.824219 1009.914062 L 800.0625 1009.792969 L 801.285156 1009.621094 L 802.492188 1009.410156 L 803.691406 1009.15625 L 804.886719 1008.855469 L 806.054688 1008.511719 L 807.21875 1008.121094 L 808.359375 1007.691406 L 809.484375 1007.226562 L 810.59375 1006.71875 L 811.679688 1006.164062 L 812.746094 1005.578125 L 813.789062 1004.953125 Z M 814.816406 1004.296875 "/>
</g>
</g>
<g clip-path="url(#clip67)" clip-rule="nonzero">
<g clip-path="url(#clip68)" clip-rule="evenodd">
<path style=" stroke:none;fill-rule:evenodd;fill:rgb(56.470588%,64.313725%,68.235294%);fill-opacity:1;" d="M 796.335938 1010.011719 L 1648.246094 1861.921875 L 1622.003906 1861.921875 L 770.09375 1010.011719 Z M 796.335938 1010.011719 "/>
<path style=" stroke:none;fill-rule:evenodd;fill:rgb(56.470588%,64.313725%,68.235294%);fill-opacity:1;" d="M 770.09375 1010.011719 L 1622.003906 1861.921875 L 1622.003906 1989.335938 L 770.09375 1137.425781 Z M 770.09375 1010.011719 "/>
</g>
</g>
<g clip-path="url(#clip69)" clip-rule="nonzero">
<g clip-path="url(#clip70)" clip-rule="evenodd">
<path style=" stroke:none;fill-rule:evenodd;fill:rgb(56.470588%,64.313725%,68.235294%);fill-opacity:1;" d="M 770.09375 1137.425781 L 1622.003906 1989.335938 L 1621.957031 1991.046875 L 1621.828125 1992.734375 L 1621.613281 1994.390625 L 1621.320312 1996.035156 L 1620.945312 1997.640625 L 1620.496094 1999.222656 L 1619.96875 2000.765625 L 1619.371094 2002.28125 L 1618.695312 2003.753906 L 1617.960938 2005.191406 L 1617.148438 2006.585938 L 1616.28125 2007.945312 L 1615.351562 2009.25 L 1614.351562 2010.515625 L 1613.300781 2011.726562 L 1612.199219 2012.886719 L 760.28125 1160.976562 L 761.390625 1159.816406 L 762.441406 1158.609375 L 763.441406 1157.339844 L 764.371094 1156.035156 L 765.238281 1154.675781 L 766.050781 1153.28125 L 766.785156 1151.84375 L 767.453125 1150.363281 L 768.050781 1148.859375 L 768.585938 1147.304688 L 769.035156 1145.730469 L 769.410156 1144.117188 L 769.703125 1142.484375 L 769.921875 1140.816406 L 770.046875 1139.136719 Z M 770.09375 1137.425781 "/>
</g>
</g>
<g clip-path="url(#clip71)" clip-rule="nonzero">
<g clip-path="url(#clip72)" clip-rule="evenodd">
<path style=" stroke:none;fill-rule:evenodd;fill:rgb(56.470588%,64.313725%,68.235294%);fill-opacity:1;" d="M 760.28125 1160.976562 L 1612.199219 2012.886719 L 1611.03125 2014.003906 L 1609.808594 2015.0625 L 1608.539062 2016.058594 L 1607.226562 2017.003906 L 1605.871094 2017.875 L 1604.46875 2018.691406 L 1603.019531 2019.433594 L 1601.542969 2020.109375 L 1600.027344 2020.71875 L 1598.476562 2021.242188 L 1596.890625 2021.699219 L 1595.28125 2022.074219 L 1593.644531 2022.375 L 1591.980469 2022.585938 L 1590.292969 2022.71875 L 1588.582031 2022.765625 L 736.671875 1170.855469 L 738.378906 1170.808594 L 740.066406 1170.675781 L 741.730469 1170.464844 L 743.371094 1170.164062 L 744.980469 1169.789062 L 746.5625 1169.332031 L 748.113281 1168.800781 L 749.632812 1168.199219 L 751.109375 1167.523438 L 752.558594 1166.78125 L 753.953125 1165.964844 L 755.316406 1165.085938 L 756.628906 1164.148438 L 757.898438 1163.152344 L 759.121094 1162.09375 Z M 760.28125 1160.976562 "/>
</g>
</g>
<g clip-path="url(#clip73)" clip-rule="nonzero">
<g clip-path="url(#clip74)" clip-rule="evenodd">
<path style=" stroke:none;fill-rule:evenodd;fill:rgb(56.470588%,64.313725%,68.235294%);fill-opacity:1;" d="M 602.074219 1048.921875 L 1453.988281 1900.828125 L 1440.878906 1900.828125 L 588.96875 1048.921875 Z M 602.074219 1048.921875 "/>
</g>
</g>
<g clip-path="url(#clip75)" clip-rule="nonzero">
<g clip-path="url(#clip76)" clip-rule="evenodd">
<path style=" stroke:none;fill-rule:evenodd;fill:rgb(56.470588%,64.313725%,68.235294%);fill-opacity:1;" d="M 572.929688 1048.921875 L 1424.84375 1900.828125 L 1424.84375 1989.335938 L 572.929688 1137.425781 Z M 572.929688 1048.921875 "/>
</g>
</g>
<g clip-path="url(#clip77)" clip-rule="nonzero">
<g clip-path="url(#clip78)" clip-rule="evenodd">
<path style=" stroke:none;fill-rule:evenodd;fill:rgb(56.470588%,64.313725%,68.235294%);fill-opacity:1;" d="M 588.96875 1048.921875 L 1440.878906 1900.828125 L 1440.703125 1900.828125 L 588.792969 1048.921875 Z M 588.96875 1048.921875 "/>
</g>
</g>
<g clip-path="url(#clip79)" clip-rule="nonzero">
<g clip-path="url(#clip80)" clip-rule="evenodd">
<path style=" stroke:none;fill-rule:evenodd;fill:rgb(56.470588%,64.313725%,68.235294%);fill-opacity:1;" d="M 588.792969 1048.921875 L 1440.703125 1900.828125 L 1424.84375 1900.828125 L 572.929688 1048.921875 Z M 588.792969 1048.921875 "/>
</g>
</g>
<g clip-path="url(#clip81)" clip-rule="nonzero">
<g clip-path="url(#clip82)" clip-rule="evenodd">
<path style=" stroke:none;fill-rule:evenodd;fill:rgb(56.470588%,64.313725%,68.235294%);fill-opacity:1;" d="M 736.671875 1170.855469 L 1588.582031 2022.765625 L 1487.398438 2022.765625 L 635.492188 1170.855469 Z M 736.671875 1170.855469 "/>
</g>
</g>
<g clip-path="url(#clip83)" clip-rule="nonzero">
<g clip-path="url(#clip84)" clip-rule="evenodd">
<path style=" stroke:none;fill-rule:evenodd;fill:rgb(56.470588%,64.313725%,68.235294%);fill-opacity:1;" d="M 635.492188 1170.855469 L 1487.398438 2022.765625 L 1485.699219 2022.71875 L 1484.011719 2022.585938 L 1482.34375 2022.375 L 1480.703125 2022.074219 L 1479.089844 2021.699219 L 1477.507812 2021.242188 L 1475.960938 2020.71875 L 1474.441406 2020.109375 L 1472.960938 2019.433594 L 1471.523438 2018.691406 L 1470.121094 2017.875 L 1468.753906 2017.003906 L 1467.441406 2016.058594 L 1466.175781 2015.0625 L 1464.953125 2014.003906 L 613.042969 1162.09375 L 614.261719 1163.152344 L 615.53125 1164.148438 L 616.847656 1165.085938 L 618.207031 1165.964844 L 619.609375 1166.78125 L 621.050781 1167.523438 L 622.53125 1168.199219 L 624.046875 1168.800781 L 625.597656 1169.332031 L 627.179688 1169.789062 L 628.792969 1170.164062 L 630.433594 1170.464844 L 632.097656 1170.675781 L 633.785156 1170.808594 Z M 635.492188 1170.855469 "/>
</g>
</g>
<g clip-path="url(#clip85)" clip-rule="nonzero">
<g clip-path="url(#clip86)" clip-rule="evenodd">
<path style=" stroke:none;fill-rule:evenodd;fill:rgb(56.470588%,64.313725%,68.235294%);fill-opacity:1;" d="M 572.929688 1137.425781 L 1424.84375 1989.335938 L 1424.796875 1991.046875 L 1424.664062 1992.734375 L 1424.453125 1994.390625 L 1424.160156 1996.035156 L 1423.785156 1997.640625 L 1423.335938 1999.222656 L 1422.800781 2000.765625 L 1422.203125 2002.28125 L 1421.535156 2003.753906 L 1420.792969 2005.191406 L 1419.988281 2006.585938 L 1419.121094 2007.945312 L 1418.183594 2009.25 L 1417.191406 2010.515625 L 1416.140625 2011.726562 L 1415.03125 2012.886719 L 563.125 1160.976562 L 564.230469 1159.816406 L 565.28125 1158.601562 L 566.273438 1157.339844 L 567.207031 1156.035156 L 568.078125 1154.675781 L 568.882812 1153.28125 L 569.625 1151.84375 L 570.292969 1150.363281 L 570.894531 1148.859375 L 571.421875 1147.304688 L 571.871094 1145.730469 L 572.246094 1144.117188 L 572.542969 1142.484375 L 572.753906 1140.816406 L 572.886719 1139.136719 Z M 572.929688 1137.425781 "/>
</g>
</g>
<g clip-path="url(#clip87)" clip-rule="nonzero">
<g clip-path="url(#clip88)" clip-rule="evenodd">
<path style=" stroke:none;fill-rule:evenodd;fill:rgb(56.470588%,64.313725%,68.235294%);fill-opacity:1;" d="M 348.070312 976.597656 L 1199.976562 1828.507812 L 1199.910156 1828.507812 L 348 976.597656 Z M 348.070312 976.597656 "/>
</g>
</g>
<g clip-path="url(#clip89)" clip-rule="nonzero">
<g clip-path="url(#clip90)" clip-rule="evenodd">
<path style=" stroke:none;fill-rule:evenodd;fill:rgb(56.470588%,64.313725%,68.235294%);fill-opacity:1;" d="M 381.257812 1010.011719 L 1233.171875 1861.921875 L 1231.921875 1861.898438 L 1230.683594 1861.824219 L 1229.445312 1861.710938 L 1228.222656 1861.546875 L 1227 1861.335938 L 1225.800781 1861.085938 L 1224.601562 1860.789062 L 1223.421875 1860.449219 L 1222.253906 1860.066406 L 1221.105469 1859.640625 L 1219.964844 1859.175781 L 1218.847656 1858.664062 L 1217.753906 1858.117188 L 1216.671875 1857.523438 L 1215.613281 1856.894531 L 1214.578125 1856.226562 L 362.671875 1004.316406 L 363.703125 1004.984375 L 364.761719 1005.613281 L 365.839844 1006.199219 L 366.9375 1006.753906 L 368.058594 1007.265625 L 369.191406 1007.730469 L 370.34375 1008.15625 L 371.507812 1008.539062 L 372.691406 1008.878906 L 373.886719 1009.171875 L 375.089844 1009.425781 L 376.308594 1009.636719 L 377.535156 1009.792969 L 378.769531 1009.914062 L 380.011719 1009.980469 Z M 381.257812 1010.011719 "/>
</g>
</g>
<g clip-path="url(#clip91)" clip-rule="nonzero">
<g clip-path="url(#clip92)" clip-rule="evenodd">
<path style=" stroke:none;fill-rule:evenodd;fill:rgb(56.470588%,64.313725%,68.235294%);fill-opacity:1;" d="M 433.144531 1170.855469 L 1285.058594 2022.765625 L 1283.347656 2022.71875 L 1281.660156 2022.59375 L 1280.003906 2022.375 L 1278.359375 2022.082031 L 1276.753906 2021.707031 L 1275.171875 2021.257812 L 1273.628906 2020.734375 L 1272.113281 2020.125 L 1270.640625 2019.457031 L 1269.203125 2018.714844 L 1267.808594 2017.914062 L 1266.449219 2017.042969 L 1265.144531 2016.105469 L 1263.878906 2015.113281 L 411.96875 1163.203125 L 413.230469 1164.195312 L 414.539062 1165.132812 L 415.894531 1166.003906 L 417.289062 1166.804688 L 418.726562 1167.546875 L 420.203125 1168.214844 L 421.714844 1168.816406 L 423.261719 1169.339844 L 424.84375 1169.796875 L 426.453125 1170.171875 L 428.089844 1170.464844 L 429.753906 1170.675781 L 431.4375 1170.808594 Z M 433.144531 1170.855469 "/>
</g>
</g>
<g clip-path="url(#clip93)" clip-rule="nonzero">
<g clip-path="url(#clip94)" clip-rule="evenodd">
<path style=" stroke:none;fill-rule:evenodd;fill:rgb(56.470588%,64.313725%,68.235294%);fill-opacity:1;" d="M 399.722656 1010.011719 L 1251.628906 1861.921875 L 1233.171875 1861.921875 L 381.257812 1010.011719 Z M 399.722656 1010.011719 "/>
</g>
</g>
<g clip-path="url(#clip95)" clip-rule="nonzero">
<g clip-path="url(#clip96)" clip-rule="evenodd">
<path style=" stroke:none;fill-rule:evenodd;fill:rgb(56.470588%,64.313725%,68.235294%);fill-opacity:1;" d="M 362.671875 1004.316406 L 1214.578125 1856.226562 L 1213.574219 1855.523438 L 1212.601562 1854.789062 L 1211.648438 1854.015625 L 359.738281 1002.105469 L 360.6875 1002.878906 L 361.667969 1003.613281 Z M 362.671875 1004.316406 "/>
</g>
</g>
<g clip-path="url(#clip97)" clip-rule="nonzero">
<g clip-path="url(#clip98)" clip-rule="evenodd">
<path style=" stroke:none;fill-rule:evenodd;fill:rgb(56.470588%,64.313725%,68.235294%);fill-opacity:1;" d="M 539.511719 1170.855469 L 1391.421875 2022.765625 L 1285.058594 2022.765625 L 433.144531 1170.855469 Z M 539.511719 1170.855469 "/>
</g>
</g>
<g clip-path="url(#clip99)" clip-rule="nonzero">
<g clip-path="url(#clip100)" clip-rule="evenodd">
<path style=" stroke:none;fill-rule:evenodd;fill:rgb(56.470588%,64.313725%,68.235294%);fill-opacity:1;" d="M 563.125 1160.976562 L 1415.03125 2012.886719 L 1413.871094 2014.003906 L 1412.648438 2015.0625 L 1411.378906 2016.058594 L 1410.066406 2016.996094 L 1408.703125 2017.875 L 1407.300781 2018.691406 L 1405.859375 2019.433594 L 1404.382812 2020.109375 L 1402.859375 2020.71875 L 1401.316406 2021.242188 L 1399.734375 2021.699219 L 1398.121094 2022.074219 L 1396.476562 2022.375 L 1394.820312 2022.585938 L 1393.132812 2022.71875 L 1391.421875 2022.765625 L 539.511719 1170.855469 L 541.21875 1170.808594 L 542.90625 1170.675781 L 544.570312 1170.464844 L 546.210938 1170.164062 L 547.820312 1169.789062 L 549.402344 1169.332031 L 550.953125 1168.800781 L 552.46875 1168.199219 L 553.949219 1167.523438 L 555.390625 1166.773438 L 556.792969 1165.964844 L 558.15625 1165.085938 L 559.46875 1164.148438 L 560.738281 1163.152344 L 561.957031 1162.085938 Z M 563.125 1160.976562 "/>
</g>
</g>
<g clip-path="url(#clip101)" clip-rule="nonzero">
<g clip-path="url(#clip102)" clip-rule="evenodd">
<path style=" stroke:none;fill-rule:evenodd;fill:rgb(56.470588%,64.313725%,68.235294%);fill-opacity:1;" d="M 358.417969 952.460938 Z M 685.734375 365.792969 C 788.933594 357.289062 879.484375 434.054688 887.988281 537.253906 C 890.933594 573.003906 883.644531 607.238281 868.570312 637.070312 L 1159.21875 883.519531 L 1159.183594 883.558594 L 1172.042969 894.457031 C 1176.558594 898.285156 1180.285156 902.917969 1182.992188 908.179688 C 1185.714844 913.476562 1187.332031 919.292969 1187.835938 925.21875 L 1187.851562 925.390625 C 1188.324219 931.328125 1187.683594 937.332031 1185.859375 943.007812 C 1184.050781 948.644531 1181.132812 953.824219 1177.304688 958.339844 L 1175.933594 959.957031 C 1168.230469 968.226562 1157.769531 973.257812 1146.453125 974.191406 C 1139 974.804688 1131.425781 973.582031 1124.5625 970.597656 L 1113.160156 965.640625 L 1072.039062 1014.144531 C 1068.027344 1018.875 1062.394531 1021.777344 1056.214844 1022.285156 C 1050.03125 1022.792969 1044.003906 1020.855469 1039.269531 1016.84375 L 1010.734375 992.65625 L 1010.726562 992.601562 L 1005.476562 988.136719 C 1000.78125 984.148438 997.929688 978.539062 997.425781 972.402344 L 997.277344 970.605469 C 997.253906 965.097656 999.203125 959.808594 1002.792969 955.5625 L 1007.285156 950.253906 L 1007.28125 950.195312 L 1045.058594 905.640625 L 1012.949219 878.339844 L 969.714844 929.40625 C 965.796875 933.472656 960.585938 935.957031 954.910156 936.425781 C 949.242188 936.894531 943.703125 935.300781 939.175781 931.941406 L 904.28125 902.371094 L 904.226562 902.320312 C 899.5 898.300781 896.574219 892.691406 896.0625 886.503906 C 895.550781 880.292969 897.566406 874.28125 901.5625 869.519531 L 905.945312 864.292969 L 905.945312 864.273438 L 943.714844 819.730469 L 809.339844 705.800781 C 782.871094 724.539062 751.191406 736.652344 716.527344 739.507812 C 714.28125 739.691406 712.039062 739.835938 709.804688 739.941406 C 701.050781 766.226562 689.359375 790.277344 676.867188 808.128906 L 690.058594 821.507812 L 819.929688 953.207031 C 824.652344 957.957031 827.703125 963.886719 828.949219 970.117188 C 830.203125 976.378906 829.621094 983.082031 827.066406 989.316406 L 827.039062 989.304688 C 824.488281 995.515625 820.15625 1000.699219 814.8125 1004.292969 C 809.425781 1007.917969 803.015625 1010.003906 796.335938 1010.003906 L 770.089844 1010.003906 L 770.089844 1137.425781 C 770.089844 1146.585938 766.335938 1154.925781 760.285156 1160.976562 C 754.199219 1167.070312 745.835938 1170.851562 736.671875 1170.851562 L 635.492188 1170.851562 C 626.328125 1170.851562 617.964844 1167.070312 611.878906 1160.976562 C 605.828125 1154.925781 602.074219 1146.585938 602.074219 1137.425781 L 602.074219 1048.917969 L 572.929688 1048.917969 L 572.929688 1137.425781 C 572.929688 1146.585938 569.171875 1154.925781 563.125 1160.976562 C 557.035156 1167.066406 548.671875 1170.851562 539.511719 1170.851562 L 433.144531 1170.851562 C 423.984375 1170.851562 415.648438 1167.09375 409.597656 1161.046875 L 409.527344 1160.976562 C 403.476562 1154.925781 399.722656 1146.585938 399.722656 1137.425781 L 399.722656 1010.003906 L 381.257812 1010.003906 C 374.589844 1010.003906 368.128906 1007.988281 362.671875 1004.3125 C 357.25 1000.667969 352.902344 995.460938 350.390625 989.039062 C 349.613281 987.046875 349.027344 985.015625 348.636719 982.960938 L 348.636719 982.890625 C 348.257812 980.914062 348.070312 978.800781 348.070312 976.59375 L 348 976.59375 L 348 976.511719 L 348.070312 976.441406 C 348.09375 971.875 348.984375 967.441406 350.71875 963.40625 C 352.441406 959.402344 355.015625 955.671875 358.417969 952.460938 L 523.644531 792.089844 C 522.597656 790.925781 521.542969 789.574219 520.492188 788.039062 C 489.339844 742.757812 495.46875 664.636719 522.953125 611.148438 C 518.472656 597.457031 515.507812 583.03125 514.273438 568.046875 C 505.769531 464.847656 582.535156 374.296875 685.734375 365.792969 Z M 685.734375 365.792969 "/>
</g>
</g>
<path style=" stroke:none;fill-rule:nonzero;fill:rgb(97.647059%,65.882353%,14.509804%);fill-opacity:1;" d="M 578.21875 596.734375 C 575.753906 598.429688 575.375 599 572.980469 601.394531 C 538.464844 635.90625 520.457031 725.179688 549.785156 767.8125 C 549.816406 767.863281 549.789062 767.796875 549.898438 767.90625 L 524.648438 793.15625 C 523.273438 791.777344 521.882812 790.0625 520.492188 788.042969 C 481.441406 731.273438 500.972656 622.898438 547.726562 576.144531 C 551.359375 572.511719 553.609375 570.394531 558.207031 567.230469 Z M 578.21875 596.734375 "/>
<path style=" stroke:none;fill-rule:nonzero;fill:rgb(16.078431%,71.372549%,96.470588%);fill-opacity:1;" d="M 588.792969 1048.921875 L 572.929688 1048.921875 L 572.929688 1137.425781 C 572.929688 1146.585938 569.171875 1154.925781 563.125 1160.976562 C 557.035156 1167.070312 548.671875 1170.851562 539.511719 1170.851562 L 433.144531 1170.851562 C 423.984375 1170.851562 415.644531 1167.097656 409.597656 1161.046875 L 409.527344 1160.976562 C 403.476562 1154.925781 399.71875 1146.589844 399.71875 1137.425781 L 399.71875 1010.007812 L 381.257812 1010.007812 C 374.589844 1010.007812 368.128906 1007.988281 362.671875 1004.316406 C 357.25 1000.671875 352.902344 995.460938 350.390625 989.039062 C 349.609375 987.050781 349.027344 985.015625 348.636719 982.964844 L 348.636719 982.894531 C 348.257812 980.917969 348.070312 978.804688 348.070312 976.597656 L 348 976.597656 L 348 976.511719 L 348.070312 976.441406 C 348.09375 971.878906 348.984375 967.441406 350.71875 963.410156 C 352.441406 959.40625 355.015625 955.671875 358.414062 952.460938 L 358.417969 952.464844 L 570.15625 746.949219 C 575.425781 741.773438 581.992188 738.769531 588.792969 737.867188 Z M 588.792969 1048.921875 "/>
<path style=" stroke:none;fill-rule:nonzero;fill:rgb(1.176471%,60.784314%,89.803922%);fill-opacity:1;" d="M 690.058594 821.503906 L 819.929688 953.203125 C 824.648438 957.957031 827.703125 963.886719 828.949219 970.117188 C 830.199219 976.378906 829.621094 983.078125 827.066406 989.316406 L 827.039062 989.304688 C 824.488281 995.515625 820.15625 1000.695312 814.8125 1004.292969 C 809.425781 1007.914062 803.011719 1010.003906 796.335938 1010.003906 L 770.089844 1010.003906 L 770.089844 1137.425781 C 770.089844 1146.585938 766.335938 1154.921875 760.285156 1160.976562 C 754.195312 1167.066406 745.832031 1170.847656 736.667969 1170.847656 L 635.492188 1170.847656 C 626.328125 1170.847656 617.964844 1167.066406 611.875 1160.976562 C 605.824219 1154.921875 602.074219 1146.585938 602.074219 1137.425781 L 602.074219 1048.917969 L 588.792969 1048.917969 L 588.792969 737.863281 C 589.011719 737.832031 589.230469 737.804688 589.453125 737.78125 C 590.832031 737.625 592.21875 737.558594 593.605469 737.574219 C 602.097656 737.691406 610.566406 740.992188 616.917969 747.335938 L 617.058594 747.476562 L 638.988281 769.714844 Z M 690.058594 821.503906 "/>
<path style=" stroke:none;fill-rule:evenodd;fill:rgb(100%,87.843137%,50.980392%);fill-opacity:1;" d="M 905.949219 864.277344 L 905.949219 864.296875 L 901.5625 869.523438 C 897.570312 874.285156 895.554688 880.296875 896.066406 886.503906 C 896.578125 892.695312 899.503906 898.304688 904.226562 902.324219 L 904.285156 902.371094 L 939.179688 931.945312 C 943.707031 935.304688 949.242188 936.894531 954.910156 936.429688 C 960.585938 935.960938 965.800781 933.476562 969.71875 929.40625 L 1012.949219 878.34375 L 1045.058594 905.644531 L 1007.28125 950.199219 L 1007.285156 950.253906 L 1002.796875 955.566406 C 999.203125 959.8125 997.253906 965.097656 997.277344 970.609375 L 997.425781 972.40625 C 997.933594 978.542969 1000.785156 984.148438 1005.480469 988.140625 L 1010.730469 992.601562 L 1010.734375 992.660156 L 1039.273438 1016.847656 C 1044.003906 1020.859375 1050.035156 1022.796875 1056.214844 1022.289062 C 1062.398438 1021.777344 1068.027344 1018.878906 1072.039062 1014.148438 L 1113.160156 965.644531 L 1124.566406 970.601562 C 1131.429688 973.585938 1139 974.808594 1146.457031 974.195312 C 1157.773438 973.261719 1168.234375 968.226562 1175.9375 959.960938 L 1177.308594 958.339844 C 1181.136719 953.828125 1184.054688 948.644531 1185.863281 943.007812 C 1187.683594 937.335938 1188.324219 931.332031 1187.855469 925.394531 L 1187.839844 925.222656 C 1187.332031 919.292969 1185.71875 913.476562 1182.992188 908.183594 C 1180.285156 902.917969 1176.558594 898.285156 1172.046875 894.460938 L 1159.1875 883.5625 L 1159.222656 883.519531 L 851.410156 622.519531 L 792.746094 691.730469 L 943.714844 819.730469 Z M 905.949219 864.277344 "/>
<path style=" stroke:none;fill-rule:evenodd;fill:rgb(100%,92.54902%,70.196078%);fill-opacity:1;" d="M 685.734375 365.792969 C 788.933594 357.289062 879.484375 434.054688 887.988281 537.253906 C 896.492188 640.453125 819.726562 731.003906 716.527344 739.507812 C 613.328125 748.011719 522.777344 671.246094 514.273438 568.046875 C 505.769531 464.847656 582.535156 374.296875 685.734375 365.792969 Z M 694.613281 473.5625 C 738.292969 469.964844 776.621094 502.457031 780.21875 546.136719 C 783.820312 589.8125 751.328125 628.140625 707.648438 631.738281 C 663.96875 635.339844 625.640625 602.847656 622.042969 559.167969 C 618.445312 515.488281 650.933594 477.160156 694.613281 473.5625 Z M 694.613281 473.5625 "/>
<path style=" stroke:none;fill-rule:evenodd;fill:rgb(25.882353%,25.882353%,25.882353%);fill-opacity:1;" d="M 614.1875 813.414062 C 614.1875 795.792969 602.816406 781.507812 588.792969 781.507812 C 574.769531 781.507812 563.398438 795.792969 563.398438 813.414062 C 563.398438 831.035156 574.769531 845.320312 588.792969 845.320312 C 602.816406 845.320312 614.1875 831.035156 614.1875 813.414062 Z M 614.1875 813.414062 "/>
<path style=" stroke:none;fill-rule:nonzero;fill:rgb(97.647059%,65.882353%,14.509804%);fill-opacity:1;" d="M 621.863281 549.375 C 790.320312 536.519531 716.492188 788.199219 654.085938 832.636719 C 629.933594 849.835938 606.589844 854.761719 574.347656 831.734375 C 573.253906 813.351562 582.667969 805.316406 594.992188 802.71875 C 612.601562 815.292969 621.96875 811.785156 633.4375 803.621094 C 667.613281 779.285156 750.246094 603.984375 625.890625 577.929688 C 621.863281 569.203125 620.40625 559.71875 621.863281 549.375 Z M 621.863281 549.375 "/>
</g>
</svg>
